<svg width="62" height="60" viewBox="0 0 62 60" fill="none" xmlns="http://www.w3.org/2000/svg">
<path fill-rule="evenodd" clip-rule="evenodd" d="M27.2533 0.590332H36.6375V2.373H36.6375V3.56139H44.1449V7.72097H52.9035V10.0979H59.7852V14.8516V18.417L61.0365 18.4169V23.1707V27.3302V28.5186V31.4898V34.4609V36.8377V42.78H59.7852V45.1568V49.3164H52.9035V54.0702H46.6473V57.0412H44.1449V57.6354H36.6375V59.4181H34.7607H27.2533H26.0021V57.6354H18.4948V57.0412H15.9923V54.0702H9.73611V49.3164H3.48003V45.1568V42.78H0.977539V36.8377V34.4609V31.4898V28.5186V27.3302V23.1707V18.4169H3.48003V14.8516V10.0979H9.73611V7.72097H18.4947V16.0401H11.613V18.417V23.1707H9.73614V27.3302V28.5186V31.4898V34.4609V36.8377V36.8377H11.613V41.5915V45.1568V45.1569H18.4947V49.3163H18.4948H24.7509H27.2534V51.099H34.7607V49.3163H37.8887H44.1449V45.1569H50.401V45.1568V41.5915V36.8377H52.9035V36.8377V34.4609V31.4898V28.5186V27.3302V23.1707H50.401V18.417V16.0401H44.1449V11.8805H34.7607V10.0979H27.2534V11.8805H18.4948V3.56139H27.2533V0.590332Z" fill="black"/>
</svg>
