<svg width="61" height="59" viewBox="0 0 61 59" fill="none" xmlns="http://www.w3.org/2000/svg">
<path fill-rule="evenodd" clip-rule="evenodd" d="M26.2758 0H35.66L35.66 1.78267V2.97106H43.1674V7.13064H51.9259V9.50754H58.8077V14.2613V17.8266L60.059 17.8266V22.5803V26.7399V27.9283V30.8994V33.8705V36.2474V42.1896H58.8077V44.5665V48.7261H51.9259V53.4798H45.6698V56.4509H43.1674V57.0451H35.66V58.8278H33.7832H26.2758H25.0246V57.0451H17.5172V56.4509H15.0147V53.4798H8.75857V48.7261H2.50249V44.5665V42.1896H0V36.2474V33.8705V30.8994V27.9283V26.7399V22.5803V17.8266L2.50249 17.8266V14.2613V9.50754H8.75857V7.13064H17.5172V15.4497H10.6355V17.8266V22.5803H8.7586V26.7399V27.9283V30.8994V33.8705V36.2474V36.2474H10.6355V41.0012V44.5665V44.5665H17.5172V48.726H17.5172H23.7733H26.2758V50.5087H33.7832L33.7832 48.726H36.9112H43.1674V44.5665H49.4235V44.5665V41.0012V36.2474H51.926V36.2474V33.8705V30.8994V27.9283V26.7399V22.5803H49.4235V17.8266V15.4497H43.1674V11.2901H33.7832V9.50753H26.2758V11.2901H17.5172V2.97106H26.2758V0Z" fill="black"/>
</svg>
