<svg width="61" height="59" viewBox="0 0 61 59" fill="none" xmlns="http://www.w3.org/2000/svg">
<path fill-rule="evenodd" clip-rule="evenodd" d="M26.6019 0H35.9861V1.78267H35.9862V2.97106H43.4936L43.4935 7.13064H52.2521V9.50754H59.1338V14.2613V17.8266L60.3851 17.8266V22.5803V26.7399V27.9283V30.8994V33.8705V36.2474V42.1896H59.1338V44.5665V48.7261H52.2521V53.4798H45.9959V56.4509H43.4936V57.0451H35.9862V58.8278H34.1094H26.602H25.3508V57.0451H17.8434V56.4509H15.3409V53.4798H9.08474V48.7261H2.82866V44.5665V42.1896H0.326172V36.2474V33.8705V30.8994V27.9283V26.7399V22.5803V17.8266L2.82866 17.8266V14.2613V9.50754H9.08474V7.13064H17.8433V15.4497H10.9616V17.8266V22.5803H9.08477V26.7399V27.9283V30.8994V33.8705V36.2474V36.2474H10.9616V41.0012V44.5665V44.5665H17.8433V48.726H17.8434H24.0995H26.602V50.5087H34.1093V48.726H37.2373H43.4935V44.5665H49.7496V44.5665V41.0012V36.2474H52.2522V36.2474V33.8705V30.8994V27.9283V26.7399V22.5803H49.7496V17.8266V15.4497H43.4935L43.4936 11.2901H34.1093V9.50753H26.602V11.2901H17.8434V2.97106H26.6019V0Z" fill="black"/>
</svg>
