<svg width="61" height="60" viewBox="0 0 61 60" fill="none" xmlns="http://www.w3.org/2000/svg">
<path fill-rule="evenodd" clip-rule="evenodd" d="M26.2758 0.590332H35.66L35.66 2.373V3.56139H43.1674V7.72097H51.9259V10.0979H58.8077V14.8516V18.417L60.059 18.4169V23.1707V27.3302V28.5186V31.4898V34.4609V36.8377V42.78H58.8077V45.1568V49.3164H51.9259V54.0702H45.6698V57.0412H43.1674V57.6354H35.66V59.4181H33.7832H26.2758H25.0246V57.6354H17.5172V57.0412H15.0147V54.0702H8.75857V49.3164H2.50249V45.1568V42.78H0V36.8377V34.4609V31.4898V28.5186V27.3302V23.1707V18.4169H2.50249V14.8516V10.0979H8.75857V7.72097H17.5172V16.0401H10.6355V18.417V23.1707H8.7586V27.3302V28.5186V31.4898V34.4609V36.8377V36.8377H10.6355V41.5915V45.1568V45.1569H17.5172V49.3163H17.5172H23.7733H26.2758V51.099H33.7832L33.7832 49.3163H36.9112H43.1674V45.1569H49.4235V45.1568V41.5915V36.8377H51.926V36.8377V34.4609V31.4898V28.5186V27.3302V23.1707H49.4235V18.417V16.0401H43.1674V11.8805H33.7832V10.0979H26.2758V11.8805H17.5172V3.56139H26.2758V0.590332Z" fill="black"/>
</svg>
