<svg width="565" height="319" viewBox="0 0 565 319" fill="none" xmlns="http://www.w3.org/2000/svg">
<rect width="565" height="319" fill="url(#paint0_linear_324_34)"/>
<path d="M459 -4.63341e-06L565 0L565 46.7899L549.1 46.7899L549.1 11.6975L522.6 11.6975L522.6 46.7899L506.7 46.7899L506.7 11.6975L459 11.6975L459 -4.63341e-06Z" fill="black"/>
<path d="M459 57.6344L565 57.6345L565 69.3319L459 69.3319L459 57.6344Z" fill="black"/>
<path d="M459 83.4664L565 83.4664L565 95.1639L474.9 95.1639L474.9 134.155L459 134.155L459 83.4664Z" fill="black"/>
<path d="M459 149.021L549.1 149.021L549.1 121.727L565 121.727L565 188.013L549.1 188.013L549.1 160.718L459 160.718L459 149.021Z" fill="black"/>
<path d="M459 195.689L565 195.689L565 242.479L549.1 242.479L549.1 207.387L522.6 207.387L522.6 242.479L506.7 242.479L506.7 207.387L474.9 207.387L474.9 242.479L459 242.479L459 195.689Z" fill="black"/>
<path d="M522.6 295.605L527.9 295.605L527.9 299.504L543.8 299.504L543.8 295.605L549.1 295.605L549.1 268.311L522.6 268.311L522.6 295.605ZM459 256.613L565 256.613L565 299.504L559.7 299.504L559.7 303.403L554.4 303.403L554.4 307.303L549.1 307.303L549.1 311.202L522.6 311.202L522.6 307.303L517.3 307.303L517.3 303.403L512 303.403L512 299.504L506.7 299.504L506.7 287.807L501.4 287.807L501.4 291.706L496.1 291.706L496.1 295.605L490.8 295.605L490.8 299.504L485.5 299.504L485.5 303.403L480.2 303.403L480.2 307.303L474.9 307.303L474.9 311.202L469.6 311.202L469.6 315.101L464.3 315.101L464.3 319L459 319L459 303.403L464.3 303.403L464.3 299.504L469.6 299.504L469.6 295.605L474.9 295.605L474.9 291.706L480.2 291.706L480.2 287.807L485.5 287.807L485.5 283.908L490.8 283.908L490.8 280.008L496.1 280.008L496.1 276.109L501.4 276.109L501.4 272.21L506.7 272.21L506.7 268.311L459 268.311L459 256.613Z" fill="black"/>
<defs>
<linearGradient id="paint0_linear_324_34" x1="282.5" y1="0" x2="282.5" y2="319" gradientUnits="userSpaceOnUse">
<stop stop-color="#FF26FF"/>
<stop offset="0.630208" stop-color="#FAF09B"/>
</linearGradient>
</defs>
</svg>
