<svg width="61" height="59" viewBox="0 0 61 59" fill="none" xmlns="http://www.w3.org/2000/svg">
<path fill-rule="evenodd" clip-rule="evenodd" d="M26.9271 5.21523e-05H36.3113V1.78272H36.3114V2.97111H43.8188V7.13069H52.5773V9.50759H59.459V14.2613V17.8267L60.7103 17.8267V22.5804V26.74V27.9284V30.8995V33.8706V36.2474V42.1897H59.459V44.5666V48.7261H52.5773V53.4799H46.3211V56.4509H43.8188V57.0452H36.3114V58.8278H34.4346H26.9272H25.676V57.0452H18.1686V56.4509H15.6661V53.4799H9.40994V48.7261H3.15386V44.5666V42.1897H0.65137V36.2474V33.8706V30.8995V27.9284V26.74V22.5804V17.8267L3.15386 17.8267V14.2613V9.50759H9.40994V7.13069H18.1685V15.4498H11.2868V17.8267V22.5804H9.40997V26.74V27.9284V30.8995V33.8706V36.2474V36.2475H11.2868V41.0012V44.5666V44.5666H18.1685V48.7261H18.1686H24.4247H26.9272V50.5087H34.4345V48.7261H37.5625H43.8187V44.5666H50.0748V44.5666V41.0012V36.2475H52.5774V36.2474V33.8706V30.8995V27.9284V26.74V22.5804H50.0748V17.8267V15.4498H43.8187V11.2902H34.4345V9.50758H26.9272V11.2902H18.1686V2.97111H26.9271V5.21523e-05Z" fill="black"/>
</svg>
