<svg width="61" height="60" viewBox="0 0 61 60" fill="none" xmlns="http://www.w3.org/2000/svg">
<path fill-rule="evenodd" clip-rule="evenodd" d="M26.9271 0.590332H36.3113V2.373H36.3114V3.56139H43.8187V7.72097H52.5773V10.0979H59.459V14.8516V18.417L60.7103 18.4169V23.1707V27.3302V28.5186V31.4898V34.4609V36.8377V42.78H59.459V45.1568V49.3164H52.5773V54.0702H46.3211V57.0412H43.8187V57.6354H36.3114V59.4181H34.4346H26.9272H25.676V57.6354H18.1686V57.0412H15.6661V54.0702H9.40994V49.3164H3.15385V45.1568V42.78H0.651367V36.8377V34.4609V31.4898V28.5186V27.3302V23.1707V18.4169H3.15385V14.8516V10.0979H9.40994V7.72097H18.1685V16.0401H11.2868V18.417V23.1707H9.40997V27.3302V28.5186V31.4898V34.4609V36.8377V36.8377H11.2868V41.5915V45.1568V45.1569H18.1685V49.3163H18.1686H24.4247H26.9272V51.099H34.4345V49.3163H37.5625H43.8187V45.1569H50.0748V45.1568V41.5915V36.8377H52.5773V36.8377V34.4609V31.4898V28.5186V27.3302V23.1707H50.0748V18.417V16.0401H43.8187V11.8805H34.4345V10.0979H26.9272V11.8805H18.1686V3.56139H26.9271V0.590332Z" fill="black"/>
</svg>
