<svg width="62" height="59" viewBox="0 0 62 59" fill="none" xmlns="http://www.w3.org/2000/svg">
<path fill-rule="evenodd" clip-rule="evenodd" d="M27.2533 0H36.6375V1.78267H36.6375V2.97106H44.1449V7.13064H52.9035V9.50754H59.7852V14.2613V17.8266L61.0365 17.8266V22.5803V26.7399V27.9283V30.8994V33.8705V36.2474V42.1896H59.7852V44.5665V48.7261H52.9035V53.4798H46.6473V56.4509H44.1449V57.0451H36.6375V58.8278H34.7607H27.2533H26.0021V57.0451H18.4948V56.4509H15.9923V53.4798H9.73611V48.7261H3.48003V44.5665V42.1896H0.977539V36.2474V33.8705V30.8994V27.9283V26.7399V22.5803V17.8266L3.48003 17.8266V14.2613V9.50754H9.73611V7.13064H18.4947V15.4497H11.613V17.8266V22.5803H9.73614V26.7399V27.9283V30.8994V33.8705V36.2474V36.2474H11.613V41.0012V44.5665V44.5665H18.4947V48.726H18.4948H24.7509H27.2534V50.5087H34.7607V48.726H37.8887H44.1449V44.5665H50.401V44.5665V41.0012V36.2474H52.9035V36.2474V33.8705V30.8994V27.9283V26.7399V22.5803H50.401V17.8266V15.4497H44.1449V11.2901H34.7607V9.50753H27.2534V11.2901H18.4948V2.97106H27.2533V0Z" fill="black"/>
</svg>
