<svg width="61" height="60" viewBox="0 0 61 60" fill="none" xmlns="http://www.w3.org/2000/svg">
<path fill-rule="evenodd" clip-rule="evenodd" d="M26.6019 0.590332H35.9861V2.373H35.9862V3.56139H43.4936L43.4935 7.72097H52.2521V10.0979H59.1338V14.8516V18.417L60.3851 18.4169V23.1707V27.3302V28.5186V31.4898V34.4609V36.8377V42.78H59.1338V45.1568V49.3164H52.2521V54.0702H45.9959V57.0412H43.4936V57.6354H35.9862V59.4181H34.1094H26.602H25.3508V57.6354H17.8434V57.0412H15.3409V54.0702H9.08474V49.3164H2.82866V45.1568V42.78H0.326172V36.8377V34.4609V31.4898V28.5186V27.3302V23.1707V18.4169H2.82866V14.8516V10.0979H9.08474V7.72097H17.8433V16.0401H10.9616V18.417V23.1707H9.08477V27.3302V28.5186V31.4898V34.4609V36.8377V36.8377H10.9616V41.5915V45.1568V45.1569H17.8433V49.3163H17.8434H24.0995H26.602V51.099H34.1093V49.3163H37.2373H43.4935V45.1569H49.7496V45.1568V41.5915V36.8377H52.2522V36.8377V34.4609V31.4898V28.5186V27.3302V23.1707H49.7496V18.417V16.0401H43.4935L43.4936 11.8805H34.1093V10.0979H26.602V11.8805H17.8434V3.56139H26.6019V0.590332Z" fill="black"/>
</svg>
