<svg width="565" height="411" viewBox="0 0 565 411" fill="none" xmlns="http://www.w3.org/2000/svg">
<rect width="565" height="411" fill="url(#paint0_linear_323_14)"/>
<path d="M359 411V234H406.396V260.55H370.849V304.8H406.396V331.35H370.849V411H359Z" fill="black"/>
<path d="M459.223 384.45V375.6H467.122V366.75H471.072V357.9H475.022V340.2H478.971V304.8H475.022V287.1H471.072V278.25H467.122V269.4H459.223V260.55H447.374V269.4H439.475V278.25H435.525V287.1H431.575V304.8H427.626V340.2H431.575V357.9H435.525V366.75H439.475V375.6H447.374V384.45H459.223ZM443.424 411V402.15H431.575V393.3H427.626V384.45H423.676V375.6H419.726V357.9H415.777V287.1H419.726V269.4H423.676V260.55H427.626V251.7H431.575V242.85H443.424V234H463.173V242.85H475.022V251.7H478.971V260.55H482.921V269.4H486.871V287.1H490.82V357.9H486.871V375.6H482.921V384.45H478.971V393.3H475.022V402.15H463.173V411H443.424Z" fill="black"/>
<path d="M501.805 411V234H521.554V251.7H525.503V269.4H529.453V287.1H533.403V304.8H537.352V322.5H541.302V340.2H545.252V357.9H549.201V375.6H553.151V234H565V411H545.252V393.3H541.302V375.6H537.352V357.9H533.403V340.2H529.453V322.5H525.503V304.8H521.554V287.1H517.604V269.4H513.654V411H501.805Z" fill="black"/>
<defs>
<linearGradient id="paint0_linear_323_14" x1="282.5" y1="0" x2="282.5" y2="411" gradientUnits="userSpaceOnUse">
<stop stop-color="#A2ABD6"/>
<stop offset="1" stop-color="#19E672"/>
<stop offset="1" stop-color="#5AF29C"/>
</linearGradient>
</defs>
</svg>
