<svg width="154" height="35" viewBox="0 0 154 35" fill="none" xmlns="http://www.w3.org/2000/svg">
<path d="M9.45614 35V33.25H5.40351V31.5H4.05263V29.75H2.70175V28H1.35088V24.5H0V10.5H1.35088V7H2.70175V5.25H4.05263V3.5H5.40351V1.75H9.45614V0H16.2105V1.75H20.2632V3.5H21.614V7H22.9649V8.75H24.3158V10.5H18.9123V8.75H17.5614V7H14.8596V5.25H10.807V7H8.10526V8.75H6.75439V10.5H5.40351V14H4.05263V21H5.40351V24.5H6.75439V26.25H8.10526V28H10.807V29.75H14.8596V28H17.5614V26.25H18.9123V24.5H20.2632V21H12.1579V15.75H24.3158V26.25H22.9649V28H21.614V31.5H20.2632V33.25H16.2105V35H9.45614Z" fill="black"/>
<path d="M43.017 29.75V28H45.7188V26.25H47.0696V24.5H48.4205V21H49.7714V14H48.4205V10.5H47.0696V8.75H45.7188V7H43.017V5.25H38.9644V7H36.2626V8.75H34.9117V10.5H33.5609V14H32.21V21H33.5609V24.5H34.9117V26.25H36.2626V28H38.9644V29.75H43.017ZM37.6135 35V33.25H33.5609V31.5H32.21V29.75H30.8591V28H29.5082V24.5H28.1573V10.5H29.5082V7H30.8591V5.25H32.21V3.5H33.5609V1.75H37.6135V0H44.3679V1.75H48.4205V3.5H49.7714V5.25H51.1223V7H52.4731V10.5H53.824V24.5H52.4731V28H51.1223V29.75H49.7714V31.5H48.4205V33.25H44.3679V35H37.6135Z" fill="black"/>
<path d="M63.4912 35V5.25H54.0351V0H77V5.25H67.5439V35H63.4912Z" fill="black"/>
<path d="M92.2396 29.75V28H94.9413V26.25H96.2922V24.5H97.6431V21H98.994V14H97.6431V10.5H96.2922V8.75H94.9413V7H92.2396V5.25H88.187V7H85.4852V8.75H84.1343V10.5H82.7834V14H81.4326V21H82.7834V24.5H84.1343V26.25H85.4852V28H88.187V29.75H92.2396ZM86.8361 35V33.25H82.7834V31.5H81.4326V29.75H80.0817V28H78.7308V24.5H77.3799V10.5H78.7308V7H80.0817V5.25H81.4326V3.5H82.7834V1.75H86.8361V0H93.5905V1.75H97.6431V3.5H98.994V5.25H100.345V7H101.696V10.5H103.047V24.5H101.696V28H100.345V29.75H98.994V31.5H97.6431V33.25H93.5905V35H86.8361Z" fill="black"/>
<path d="M113.938 35V31.5H112.587V26.25H111.236V22.75H109.885V17.5H108.535V12.25H107.184V8.75H105.833V3.5H104.482V0H108.535V3.5H109.885V8.75H111.236V12.25H112.587V17.5H113.938V22.75H115.289V26.25H116.64V22.75H117.991V17.5H119.342V12.25H120.692V8.75H122.043V3.5H123.394V0H127.447V3.5H126.096V8.75H124.745V12.25H123.394V17.5H122.043V22.75H120.692V26.25H119.342V31.5H117.991V35H113.938Z" fill="black"/>
<path d="M143.193 29.75V28H145.895V26.25H147.246V24.5H148.596V21H149.947V14H148.596V10.5H147.246V8.75H145.895V7H143.193V5.25H139.14V7H136.439V8.75H135.088V10.5H133.737V14H132.386V21H133.737V24.5H135.088V26.25H136.439V28H139.14V29.75H143.193ZM137.789 35V33.25H133.737V31.5H132.386V29.75H131.035V28H129.684V24.5H128.333V10.5H129.684V7H131.035V5.25H132.386V3.5H133.737V1.75H137.789V0H144.544V1.75H148.596V3.5H149.947V5.25H151.298V7H152.649V10.5H154V24.5H152.649V28H151.298V29.75H149.947V31.5H148.596V33.25H144.544V35H137.789Z" fill="black"/>
</svg>
