<svg width="790" height="1103" viewBox="0 0 790 1103" fill="none" xmlns="http://www.w3.org/2000/svg">
<rect width="790" height="1103" fill="white"/>
<path d="M77.2271 72.1541V74.7747H81.4931V79.0406H84.1136V74.7747H88.3999V72.1541H84.1136V67.8678H81.4931V72.1541H77.2271Z" fill="black"/>
<path d="M77.2271 219.31V221.93H81.4931V226.196H84.1136V221.93H88.3999V219.31H84.1136V215.023H81.4931V219.31H77.2271Z" fill="black"/>
<path d="M233.824 72.1541V74.7747H238.09V79.0406H240.71V74.7747H244.997V72.1541H240.71V67.8678H238.09V72.1541H233.824Z" fill="black"/>
<path d="M233.824 219.31V221.93H238.09V226.196H240.71V221.93H244.997V219.31H240.71V215.023H238.09V219.31H233.824Z" fill="black"/>
<path d="M390.419 72.1541V74.7747H394.685V79.0406H397.305V74.7747H401.591V72.1541H397.305V67.8678H394.685V72.1541H390.419Z" fill="black"/>
<path d="M390.419 219.31V221.93H394.685V226.196H397.305V221.93H401.591V219.31H397.305V215.023H394.685V219.31H390.419Z" fill="black"/>
<path d="M547.013 72.1541V74.7747H551.279V79.0406H553.9V74.7747H558.186V72.1541H553.9V67.8678H551.279V72.1541H547.013Z" fill="black"/>
<path d="M547.013 219.31V221.93H551.279V226.196H553.9V221.93H558.186V219.31H553.9V215.023H551.279V219.31H547.013Z" fill="black"/>
<path d="M703.609 72.1541V74.7747H707.875V79.0406H710.495V74.7747H714.782V72.1541H710.495V67.8678H707.875V72.1541H703.609Z" fill="black"/>
<path d="M703.609 219.31V221.93H707.875V226.196H710.495V221.93H714.782V219.31H710.495V215.023H707.875V219.31H703.609Z" fill="black"/>
<path d="M77.2271 343.154V345.775H81.4931V350.041H84.1136V345.775H88.3999V343.154H84.1136V338.868H81.4931V343.154H77.2271Z" fill="black"/>
<path d="M77.2271 490.31V492.93H81.4931V497.196H84.1136V492.93H88.3999V490.31H84.1136V486.023H81.4931V490.31H77.2271Z" fill="black"/>
<path d="M233.824 343.154V345.775H238.09V350.041H240.71V345.775H244.997V343.154H240.71V338.868H238.09V343.154H233.824Z" fill="black"/>
<path d="M233.824 490.31V492.93H238.09V497.196H240.71V492.93H244.997V490.31H240.71V486.023H238.09V490.31H233.824Z" fill="black"/>
<path d="M390.419 343.154V345.775H394.685V350.041H397.305V345.775H401.591V343.154H397.305V338.868H394.685V343.154H390.419Z" fill="black"/>
<path d="M390.419 490.31V492.93H394.685V497.196H397.305V492.93H401.591V490.31H397.305V486.023H394.685V490.31H390.419Z" fill="black"/>
<path d="M547.013 343.154V345.775H551.279V350.041H553.9V345.775H558.186V343.154H553.9V338.868H551.279V343.154H547.013Z" fill="black"/>
<path d="M547.013 490.31V492.93H551.279V497.196H553.9V492.93H558.186V490.31H553.9V486.023H551.279V490.31H547.013Z" fill="black"/>
<path d="M703.609 343.154V345.775H707.875V350.041H710.495V345.775H714.782V343.154H710.495V338.868H707.875V343.154H703.609Z" fill="black"/>
<path d="M703.609 490.31V492.93H707.875V497.196H710.495V492.93H714.782V490.31H710.495V486.023H707.875V490.31H703.609Z" fill="black"/>
<path d="M77.2271 614.154V616.775H81.4931V621.041H84.1136V616.775H88.3999V614.154H84.1136V609.868H81.4931V614.154H77.2271Z" fill="black"/>
<path d="M77.2271 761.31V763.93H81.4931V768.196H84.1136V763.93H88.3999V761.31H84.1136V757.023H81.4931V761.31H77.2271Z" fill="black"/>
<path d="M233.824 614.154V616.775H238.09V621.041H240.71V616.775H244.997V614.154H240.71V609.868H238.09V614.154H233.824Z" fill="black"/>
<path d="M233.824 761.31V763.93H238.09V768.196H240.71V763.93H244.997V761.31H240.71V757.023H238.09V761.31H233.824Z" fill="black"/>
<path d="M390.419 614.154V616.775H394.685V621.041H397.305V616.775H401.591V614.154H397.305V609.868H394.685V614.154H390.419Z" fill="black"/>
<path d="M390.419 761.31V763.93H394.685V768.196H397.305V763.93H401.591V761.31H397.305V757.023H394.685V761.31H390.419Z" fill="black"/>
<path d="M547.013 614.154V616.775H551.279V621.041H553.9V616.775H558.186V614.154H553.9V609.868H551.279V614.154H547.013Z" fill="black"/>
<path d="M547.013 761.31V763.93H551.279V768.196H553.9V763.93H558.186V761.31H553.9V757.023H551.279V761.31H547.013Z" fill="black"/>
<path d="M703.609 614.154V616.775H707.875V621.041H710.495V616.775H714.782V614.154H710.495V609.868H707.875V614.154H703.609Z" fill="black"/>
<path d="M703.609 761.31V763.93H707.875V768.196H710.495V763.93H714.782V761.31H710.495V757.023H707.875V761.31H703.609Z" fill="black"/>
<path d="M77.2271 885.154V887.775H81.4931V892.041H84.1136V887.775H88.3999V885.154H84.1136V880.868H81.4931V885.154H77.2271Z" fill="black"/>
<path d="M77.2271 1032.31V1034.93H81.4931V1039.2H84.1136V1034.93H88.3999V1032.31H84.1136V1028.02H81.4931V1032.31H77.2271Z" fill="black"/>
<path d="M233.824 885.154V887.775H238.09V892.041H240.71V887.775H244.997V885.154H240.71V880.868H238.09V885.154H233.824Z" fill="black"/>
<path d="M233.824 1032.31V1034.93H238.09V1039.2H240.71V1034.93H244.997V1032.31H240.71V1028.02H238.09V1032.31H233.824Z" fill="black"/>
<path d="M390.419 885.154V887.775H394.685V892.041H397.305V887.775H401.591V885.154H397.305V880.868H394.685V885.154H390.419Z" fill="black"/>
<path d="M390.419 1032.31V1034.93H394.685V1039.2H397.305V1034.93H401.591V1032.31H397.305V1028.02H394.685V1032.31H390.419Z" fill="black"/>
<path d="M547.013 885.154V887.775H551.279V892.041H553.9V887.775H558.186V885.154H553.9V880.868H551.279V885.154H547.013Z" fill="black"/>
<path d="M547.013 1032.31V1034.93H551.279V1039.2H553.9V1034.93H558.186V1032.31H553.9V1028.02H551.279V1032.31H547.013Z" fill="black"/>
<path d="M703.609 885.154V887.775H707.875V892.041H710.495V887.775H714.782V885.154H710.495V880.868H707.875V885.154H703.609Z" fill="black"/>
<path d="M703.609 1032.31V1034.93H707.875V1039.2H710.495V1034.93H714.782V1032.31H710.495V1028.02H707.875V1032.31H703.609Z" fill="black"/>
</svg>
