<svg width="293" height="235" viewBox="0 0 293 235" fill="none" xmlns="http://www.w3.org/2000/svg">
<g clip-path="url(#clip0_451_25495)">
<rect width="293" height="235" fill="white"/>
<path d="M21.2173 44.5566V45.8747H23.3631V48.0204H24.6812V45.8747H26.8372V44.5566H24.6812V42.4006H23.3631V44.5566H21.2173Z" fill="black"/>
<path d="M21.2173 111.557V112.875H23.3631V115.02H24.6812V112.875H26.8372V111.557H24.6812V109.401H23.3631V111.557H21.2173Z" fill="black"/>
<path d="M82.4556 44.5566V45.8747H84.6014V48.0204H85.9195V45.8747H88.0754V44.5566H85.9195V42.4006H84.6014V44.5566H82.4556Z" fill="black"/>
<path d="M82.4556 111.557V112.875H84.6014V115.02H85.9195V112.875H88.0754V111.557H85.9195V109.401H84.6014V111.557H82.4556Z" fill="black"/>
<path d="M143.692 44.5566V45.8747H145.838V48.0204H147.156V45.8747H149.312V44.5566H147.156V42.4006H145.838V44.5566H143.692Z" fill="black"/>
<path d="M143.692 111.557V112.875H145.838V115.02H147.156V112.875H149.312V111.557H147.156V109.401H145.838V111.557H143.692Z" fill="black"/>
<path d="M204.93 44.5566V45.8747H207.076V48.0204H208.394V45.8747H210.55V44.5566H208.394V42.4006H207.076V44.5566H204.93Z" fill="black"/>
<path d="M204.93 111.557V112.875H207.076V115.02H208.394V112.875H210.55V111.557H208.394V109.401H207.076V111.557H204.93Z" fill="black"/>
<path d="M266.168 44.5566V45.8747H268.314V48.0204H269.632V45.8747H271.788V44.5566H269.632V42.4006H268.314V44.5566H266.168Z" fill="black"/>
<path d="M266.168 111.557V112.875H268.314V115.02H269.632V112.875H271.788V111.557H269.632V109.401H268.314V111.557H266.168Z" fill="black"/>
<path d="M21.2173 178.557V179.875H23.3631V182.02H24.6812V179.875H26.8372V178.557H24.6812V176.401H23.3631V178.557H21.2173Z" fill="black"/>
<path d="M82.4537 178.557V179.875H84.5994V182.02H85.9175V179.875H88.0735V178.557H85.9175V176.401H84.5994V178.557H82.4537Z" fill="black"/>
<path d="M143.694 178.557V179.875H145.84V182.02H147.158V179.875H149.314V178.557H147.158V176.401H145.84V178.557H143.694Z" fill="black"/>
<path d="M204.93 178.557V179.875H207.076V182.02H208.394V179.875H210.55V178.557H208.394V176.401H207.076V178.557H204.93Z" fill="black"/>
<path d="M266.167 178.557V179.875H268.312V182.02H269.63V179.875H271.786V178.557H269.63V176.401H268.312V178.557H266.167Z" fill="black"/>
</g>
<defs>
<clipPath id="clip0_451_25495">
<rect width="293" height="235" fill="white"/>
</clipPath>
</defs>
</svg>
