<svg width="150" height="33" viewBox="0 0 150 33" fill="none" xmlns="http://www.w3.org/2000/svg">
<path d="M0 33V0H6.91045V3.3H8.29254V6.6H9.67463V9.9H11.0567V13.2H12.4388V16.5H13.8209V19.8H15.203V23.1H16.5851V26.4H17.9672V0H22.1134V33H15.203V29.7H13.8209V26.4H12.4388V23.1H11.0567V19.8H9.67463V16.5H8.29254V13.2H6.91045V9.9H5.52836V6.6H4.14627V33H0Z" fill="black"/>
<path d="M43.4063 18.15V16.5H42.0242V13.2H40.6421V9.9H39.26V6.6H37.8779V9.9H36.4958V13.2H35.1137V16.5H33.7316V18.15H43.4063ZM25.4391 33V28.05H26.8212V24.75H28.2033V19.8H29.5854V16.5H30.9675V13.2H32.3496V9.9H33.7316V6.6H35.1137V3.3H36.4958V0H40.6421V3.3H42.0242V6.6H43.4063V9.9H44.7884V13.2H46.1705V16.5H47.5525V19.8H48.9346V24.75H50.3167V28.05H51.6988V33H47.5525V29.7H46.1705V26.4H44.7884V23.1H32.3496V26.4H30.9675V29.7H29.5854V33H25.4391Z" fill="black"/>
<path d="M62.3668 33V31.35H58.2206V29.7H56.8385V28.05H55.4564V26.4H54.0743V23.1H52.6922V9.9H54.0743V6.6H55.4564V4.95H56.8385V3.3H58.2206V1.65H62.3668V0H69.2773V1.65H73.4236V3.3H74.8056V6.6H76.1877V8.25H77.5698V9.9H72.0415V8.25H70.6594V6.6H67.8952V4.95H63.7489V6.6H60.9847V8.25H59.6026V9.9H58.2206V13.2H56.8385V19.8H58.2206V23.1H59.6026V24.75H60.9847V26.4H63.7489V28.05H67.8952V26.4H70.6594V24.75H72.0415V23.1H77.5698V24.75H76.1877V26.4H74.8056V29.7H73.4236V31.35H69.2773V33H62.3668Z" fill="black"/>
<path d="M81.1978 33V0H85.3441V13.2H97.7829V0H101.929V33H97.7829V18.15H85.3441V33H81.1978Z" fill="black"/>
<path d="M123.222 18.15V16.5H121.84V13.2H120.458V9.9H119.076V6.6H117.694V9.9H116.312V13.2H114.929V16.5H113.547V18.15H123.222ZM105.255 33V28.05H106.637V24.75H108.019V19.8H109.401V16.5H110.783V13.2H112.165V9.9H113.547V6.6H114.929V3.3H116.312V0H120.458V3.3H121.84V6.6H123.222V9.9H124.604V13.2H125.986V16.5H127.368V19.8H128.75V24.75H130.132V28.05H131.515V33H127.368V29.7H125.986V26.4H124.604V23.1H112.165V26.4H110.783V29.7H109.401V33H105.255Z" fill="black"/>
<path d="M136.179 33V4.95H126.504V0H150V4.95H140.325V33H136.179Z" fill="black"/>
</svg>
