<svg width="174" height="165" viewBox="0 0 174 165" fill="none" xmlns="http://www.w3.org/2000/svg">
<path d="M16.6258 41.2347V36.0804H18.2883V20.6174H16.6258V15.463H4.98773V41.2347H16.6258ZM0 103.087V0H18.2883V5.15434H19.9509V10.3087H21.6135V15.463H23.2761V41.2347H21.6135V46.3891H19.9509V51.5434H18.2883V56.6978H4.98773V103.087H0Z" fill="url(#paint0_linear_190_1013)"/>
<path d="M45.513 87.6238V82.4695H48.8381V77.3152H50.5007V72.1608H52.1633V61.8521H53.8259V41.2347H52.1633V30.9261H50.5007V25.7717H48.8381V20.6174H45.513V15.463H40.5253V20.6174H37.2001V25.7717H35.5375V30.9261H33.875V41.2347H32.2124V61.8521H33.875V72.1608H35.5375V77.3152H37.2001V82.4695H40.5253V87.6238H45.513ZM38.8627 103.087V97.9325H33.875V92.7782H32.2124V87.6238H30.5498V82.4695H28.8872V72.1608H27.2247V30.9261H28.8872V20.6174H30.5498V15.463H32.2124V10.3087H33.875V5.15434H38.8627V0H47.1756V5.15434H52.1633V10.3087H53.8259V15.463H55.4884V20.6174H57.151V30.9261H58.8136V72.1608H57.151V82.4695H55.4884V87.6238H53.8259V92.7782H52.1633V97.9325H47.1756V103.087H38.8627Z" fill="url(#paint1_linear_190_1013)"/>
<path d="M70.5555 103.087V97.9325H67.2304V92.7782H65.5678V87.6238H63.9052V77.3152H68.893V82.4695H70.5555V87.6238H78.8684V82.4695H80.531V67.0065H78.8684V61.8521H77.2058V56.6978H72.2181V51.5434H67.2304V46.3891H65.5678V41.2347H63.9052V15.463H65.5678V10.3087H67.2304V5.15434H68.893V0H80.531V5.15434H82.1936V10.3087H83.8561V20.6174H78.8684V15.463H70.5555V20.6174H68.893V36.0804H72.2181V41.2347H77.2058V46.3891H80.531V51.5434H83.8561V61.8521H85.5187V87.6238H83.8561V92.7782H82.1936V97.9325H78.8684V103.087H70.5555Z" fill="url(#paint2_linear_190_1013)"/>
<path d="M99.5986 103.087V15.463H87.9606V0H116.224V15.463H104.586V103.087H99.5986Z" fill="url(#paint3_linear_190_1013)"/>
<path d="M119.498 103.087V0H139.448V15.463H124.485V41.2347H139.448V56.6978H124.485V87.6238H139.448V103.087H119.498Z" fill="url(#paint4_linear_190_1013)"/>
<path d="M162.101 41.2347V36.0804H163.764V20.6174H162.101V15.463H150.463V41.2347H162.101ZM145.475 103.087V0H163.764V5.15434H165.426V10.3087H167.089V15.463H168.751V41.2347H167.089V46.3891H165.426V51.5434H163.764V56.6978H158.776V61.8521H160.439V67.0065H162.101V72.1608H163.764V77.3152H165.426V82.4695H167.089V87.6238H168.751V92.7782H170.414V97.9325H172.077V103.087H165.426V97.9325H163.764V92.7782H162.101V87.6238H160.439V82.4695H158.776V77.3152H157.113V72.1608H155.451V67.0065H153.788V61.8521H152.126V56.6978H150.463V103.087H145.475Z" fill="url(#paint5_linear_190_1013)"/>
<path d="M7.58288 165V161.904H4.33307V158.809H3.24981V155.713H2.16654V152.617H1.08327V146.426H0V121.661H1.08327V115.47H2.16654V112.374H3.24981V109.278H4.33307V106.183H7.58288V103.087H12.9992V106.183H16.249V109.278H17.3323V115.47H18.4156V118.565H19.4988V121.661H15.1658V118.565H14.0825V115.47H11.916V112.374H8.66615V115.47H6.49961V118.565H5.41634V121.661H4.33307V127.852H3.24981V140.235H4.33307V146.426H5.41634V149.522H6.49961V152.617H8.66615V155.713H11.916V152.617H14.0825V149.522H15.1658V146.426H16.249V140.235H9.74942V130.948H19.4988V149.522H18.4156V152.617H17.3323V158.809H16.249V161.904H12.9992V165H7.58288Z" fill="url(#paint6_linear_190_1013)"/>
<path d="M23.0195 165V103.087H36.0187V112.374H26.2693V127.852H36.0187V137.139H26.2693V155.713H36.0187V165H23.0195Z" fill="url(#paint7_linear_190_1013)"/>
<path d="M39.9455 165V103.087H45.3619V109.278H46.4451V115.47H47.5284V121.661H48.6117V127.852H49.6949V134.043H50.7782V140.235H51.8615V146.426H52.9447V152.617H54.028V103.087H57.2778V165H51.8615V158.809H50.7782V152.617H49.6949V146.426H48.6117V140.235H47.5284V134.043H46.4451V127.852H45.3619V121.661H44.2786V115.47H43.1953V165H39.9455Z" fill="url(#paint8_linear_190_1013)"/>
<path d="M61.2047 165V103.087H74.2039V112.374H64.4545V127.852H74.2039V137.139H64.4545V155.713H74.2039V165H61.2047Z" fill="url(#paint9_linear_190_1013)"/>
<path d="M88.9634 127.852V124.757H90.0467V115.47H88.9634V112.374H81.3805V127.852H88.9634ZM78.1307 165V103.087H90.0467V106.183H91.13V109.278H92.2132V112.374H93.2965V127.852H92.2132V130.948H91.13V134.043H90.0467V137.139H86.7969V140.235H87.8801V143.33H88.9634V146.426H90.0467V149.522H91.13V152.617H92.2132V155.713H93.2965V158.809H94.3798V161.904H95.463V165H91.13V161.904H90.0467V158.809H88.9634V155.713H87.8801V152.617H86.7969V149.522H85.7136V146.426H84.6303V143.33H83.5471V140.235H82.4638V137.139H81.3805V165H78.1307Z" fill="url(#paint10_linear_190_1013)"/>
<path d="M111.78 137.139V134.043H110.696V127.852H109.613V121.661H108.53V115.47H107.447V121.661H106.363V127.852H105.28V134.043H104.197V137.139H111.78ZM97.6973 165V155.713H98.7805V149.522H99.8638V140.235H100.947V134.043H102.03V127.852H103.114V121.661H104.197V115.47H105.28V109.278H106.363V103.087H109.613V109.278H110.696V115.47H111.78V121.661H112.863V127.852H113.946V134.043H115.03V140.235H116.113V149.522H117.196V155.713H118.279V165H115.03V158.809H113.946V152.617H112.863V146.426H103.114V152.617H102.03V158.809H100.947V165H97.6973Z" fill="url(#paint11_linear_190_1013)"/>
<path d="M121.935 165V112.374H114.353V103.087H132.768V112.374H125.185V165H121.935Z" fill="url(#paint12_linear_190_1013)"/>
<path d="M144.989 155.713V152.617H147.155V149.522H148.239V146.426H149.322V140.235H150.405V127.852H149.322V121.661H148.239V118.565H147.155V115.47H144.989V112.374H141.739V115.47H139.572V118.565H138.489V121.661H137.406V127.852H136.323V140.235H137.406V146.426H138.489V149.522H139.572V152.617H141.739V155.713H144.989ZM140.656 165V161.904H137.406V158.809H136.323V155.713H135.239V152.617H134.156V146.426H133.073V121.661H134.156V115.47H135.239V112.374H136.323V109.278H137.406V106.183H140.656V103.087H146.072V106.183H149.322V109.278H150.405V112.374H151.488V115.47H152.572V121.661H153.655V146.426H152.572V152.617H151.488V155.713H150.405V158.809H149.322V161.904H146.072V165H140.656Z" fill="url(#paint13_linear_190_1013)"/>
<path d="M167.5 127.852V124.757H168.584V115.47H167.5V112.374H159.918V127.852H167.5ZM156.668 165V103.087H168.584V106.183H169.667V109.278H170.75V112.374H171.833V127.852H170.75V130.948H169.667V134.043H168.584V137.139H165.334V140.235H166.417V143.33H167.5V146.426H168.584V149.522H169.667V152.617H170.75V155.713H171.833V158.809H172.917V161.904H174V165H169.667V161.904H168.584V158.809H167.5V155.713H166.417V152.617H165.334V149.522H164.251V146.426H163.167V143.33H162.084V140.235H161.001V137.139H159.918V165H156.668Z" fill="url(#paint14_linear_190_1013)"/>
<defs>
<linearGradient id="paint0_linear_190_1013" x1="86.0383" y1="0" x2="86.0383" y2="103.087" gradientUnits="userSpaceOnUse">
<stop stop-color="#19E672"/>
<stop offset="0.291667" stop-color="#FF56FF"/>
<stop offset="0.640625" stop-color="#0101C5"/>
<stop offset="1" stop-color="#FFFF00"/>
</linearGradient>
<linearGradient id="paint1_linear_190_1013" x1="86.0383" y1="0" x2="86.0383" y2="103.087" gradientUnits="userSpaceOnUse">
<stop stop-color="#19E672"/>
<stop offset="0.291667" stop-color="#FF56FF"/>
<stop offset="0.640625" stop-color="#0101C5"/>
<stop offset="1" stop-color="#FFFF00"/>
</linearGradient>
<linearGradient id="paint2_linear_190_1013" x1="86.0383" y1="0" x2="86.0383" y2="103.087" gradientUnits="userSpaceOnUse">
<stop stop-color="#19E672"/>
<stop offset="0.291667" stop-color="#FF56FF"/>
<stop offset="0.640625" stop-color="#0101C5"/>
<stop offset="1" stop-color="#FFFF00"/>
</linearGradient>
<linearGradient id="paint3_linear_190_1013" x1="86.0383" y1="0" x2="86.0383" y2="103.087" gradientUnits="userSpaceOnUse">
<stop stop-color="#19E672"/>
<stop offset="0.291667" stop-color="#FF56FF"/>
<stop offset="0.640625" stop-color="#0101C5"/>
<stop offset="1" stop-color="#FFFF00"/>
</linearGradient>
<linearGradient id="paint4_linear_190_1013" x1="86.0383" y1="0" x2="86.0383" y2="103.087" gradientUnits="userSpaceOnUse">
<stop stop-color="#19E672"/>
<stop offset="0.291667" stop-color="#FF56FF"/>
<stop offset="0.640625" stop-color="#0101C5"/>
<stop offset="1" stop-color="#FFFF00"/>
</linearGradient>
<linearGradient id="paint5_linear_190_1013" x1="86.0383" y1="0" x2="86.0383" y2="103.087" gradientUnits="userSpaceOnUse">
<stop stop-color="#19E672"/>
<stop offset="0.291667" stop-color="#FF56FF"/>
<stop offset="0.640625" stop-color="#0101C5"/>
<stop offset="1" stop-color="#FFFF00"/>
</linearGradient>
<linearGradient id="paint6_linear_190_1013" x1="87" y1="103.087" x2="87" y2="165" gradientUnits="userSpaceOnUse">
<stop stop-color="#19E672"/>
<stop offset="0.291667" stop-color="#FF56FF"/>
<stop offset="0.640625" stop-color="#0101C5"/>
<stop offset="1" stop-color="#FFFF00"/>
</linearGradient>
<linearGradient id="paint7_linear_190_1013" x1="87" y1="103.087" x2="87" y2="165" gradientUnits="userSpaceOnUse">
<stop stop-color="#19E672"/>
<stop offset="0.291667" stop-color="#FF56FF"/>
<stop offset="0.640625" stop-color="#0101C5"/>
<stop offset="1" stop-color="#FFFF00"/>
</linearGradient>
<linearGradient id="paint8_linear_190_1013" x1="87" y1="103.087" x2="87" y2="165" gradientUnits="userSpaceOnUse">
<stop stop-color="#19E672"/>
<stop offset="0.291667" stop-color="#FF56FF"/>
<stop offset="0.640625" stop-color="#0101C5"/>
<stop offset="1" stop-color="#FFFF00"/>
</linearGradient>
<linearGradient id="paint9_linear_190_1013" x1="87" y1="103.087" x2="87" y2="165" gradientUnits="userSpaceOnUse">
<stop stop-color="#19E672"/>
<stop offset="0.291667" stop-color="#FF56FF"/>
<stop offset="0.640625" stop-color="#0101C5"/>
<stop offset="1" stop-color="#FFFF00"/>
</linearGradient>
<linearGradient id="paint10_linear_190_1013" x1="87" y1="103.087" x2="87" y2="165" gradientUnits="userSpaceOnUse">
<stop stop-color="#19E672"/>
<stop offset="0.291667" stop-color="#FF56FF"/>
<stop offset="0.640625" stop-color="#0101C5"/>
<stop offset="1" stop-color="#FFFF00"/>
</linearGradient>
<linearGradient id="paint11_linear_190_1013" x1="87" y1="103.087" x2="87" y2="165" gradientUnits="userSpaceOnUse">
<stop stop-color="#19E672"/>
<stop offset="0.291667" stop-color="#FF56FF"/>
<stop offset="0.640625" stop-color="#0101C5"/>
<stop offset="1" stop-color="#FFFF00"/>
</linearGradient>
<linearGradient id="paint12_linear_190_1013" x1="87" y1="103.087" x2="87" y2="165" gradientUnits="userSpaceOnUse">
<stop stop-color="#19E672"/>
<stop offset="0.291667" stop-color="#FF56FF"/>
<stop offset="0.640625" stop-color="#0101C5"/>
<stop offset="1" stop-color="#FFFF00"/>
</linearGradient>
<linearGradient id="paint13_linear_190_1013" x1="87" y1="103.087" x2="87" y2="165" gradientUnits="userSpaceOnUse">
<stop stop-color="#19E672"/>
<stop offset="0.291667" stop-color="#FF56FF"/>
<stop offset="0.640625" stop-color="#0101C5"/>
<stop offset="1" stop-color="#FFFF00"/>
</linearGradient>
<linearGradient id="paint14_linear_190_1013" x1="87" y1="103.087" x2="87" y2="165" gradientUnits="userSpaceOnUse">
<stop stop-color="#19E672"/>
<stop offset="0.291667" stop-color="#FF56FF"/>
<stop offset="0.640625" stop-color="#0101C5"/>
<stop offset="1" stop-color="#FFFF00"/>
</linearGradient>
</defs>
</svg>
