<svg width="477" height="406" viewBox="0 0 477 406" fill="none" xmlns="http://www.w3.org/2000/svg">
<path d="M45.5775 101.462V88.7797H50.1352V50.7312H45.5775V38.0484H13.6732V101.462H45.5775ZM0 253.656V0H50.1352V12.6828H54.693V25.3656H59.2507V38.0484H63.8085V101.462H59.2507V114.145H54.693V126.828H50.1352V139.511H13.6732V253.656H0Z" fill="url(#paint0_linear_190_1007)"/>
<path d="M124.768 215.608V202.925H133.884V190.242H138.442V177.559H142.999V152.194H147.557V101.462H142.999V76.0969H138.442V63.414H133.884V50.7312H124.768V38.0484H111.095V50.7312H101.98V63.414H97.4219V76.0969H92.8641V101.462H88.3064V152.194H92.8641V177.559H97.4219V190.242H101.98V202.925H111.095V215.608H124.768ZM106.537 253.656V240.973H92.8641V228.291H88.3064V215.608H83.7486V202.925H79.1909V177.559H74.6331V76.0969H79.1909V50.7312H83.7486V38.0484H88.3064V25.3656H92.8641V12.6828H106.537V0H129.326V12.6828H142.999V25.3656H147.557V38.0484H152.115V50.7312H156.673V76.0969H161.23V177.559H156.673V202.925H152.115V215.608H147.557V228.291H142.999V240.973H129.326V253.656H106.537Z" fill="url(#paint1_linear_190_1007)"/>
<path d="M193.419 253.656V240.973H184.304V228.291H179.746V215.608H175.188V190.242H188.862V202.925H193.419V215.608H216.208V202.925H220.766V164.877H216.208V152.194H211.65V139.511H197.977V126.828H184.304V114.145H179.746V101.462H175.188V38.0484H179.746V25.3656H184.304V12.6828H188.862V0H220.766V12.6828H225.324V25.3656H229.881V50.7312H216.208V38.0484H193.419V50.7312H188.862V88.7797H197.977V101.462H211.65V114.145H220.766V126.828H229.881V152.194H234.439V215.608H229.881V228.291H225.324V240.973H216.208V253.656H193.419Z" fill="url(#paint2_linear_190_1007)"/>
<path d="M273.038 253.656V38.0484H241.133V0H318.615V38.0484H286.711V253.656H273.038Z" fill="url(#paint3_linear_190_1007)"/>
<path d="M327.588 253.656V0H382.281V38.0484H341.261V101.462H382.281V139.511H341.261V215.608H382.281V253.656H327.588Z" fill="url(#paint4_linear_190_1007)"/>
<path d="M444.381 101.462V88.7797H448.938V50.7312H444.381V38.0484H412.476V101.462H444.381ZM398.803 253.656V0H448.938V12.6828H453.496V25.3656H458.054V38.0484H462.612V101.462H458.054V114.145H453.496V126.828H448.938V139.511H435.265V152.194H439.823V164.877H444.381V177.559H448.938V190.242H453.496V202.925H458.054V215.608H462.612V228.291H467.169V240.973H471.727V253.656H453.496V240.973H448.938V228.291H444.381V215.608H439.823V202.925H435.265V190.242H430.707V177.559H426.15V164.877H421.592V152.194H417.034V139.511H412.476V253.656H398.803Z" fill="url(#paint5_linear_190_1007)"/>
<path d="M20.7875 406V398.383H11.8786V390.766H8.90895V383.148H5.9393V375.531H2.96965V360.297H0V299.359H2.96965V284.125H5.9393V276.508H8.90895V268.891H11.8786V261.273H20.7875V253.656H35.6358V261.273H44.5447V268.891H47.5144V284.125H50.484V291.742H53.4537V299.359H41.5751V291.742H38.6054V284.125H32.6661V276.508H23.7572V284.125H17.8179V291.742H14.8482V299.359H11.8786V314.594H8.90895V345.062H11.8786V360.297H14.8482V367.914H17.8179V375.531H23.7572V383.148H32.6661V375.531H38.6054V367.914H41.5751V360.297H44.5447V345.062H26.7268V322.211H53.4537V367.914H50.484V375.531H47.5144V390.766H44.5447V398.383H35.6358V406H20.7875Z" fill="url(#paint6_linear_190_1007)"/>
<path d="M63.1051 406V253.656H98.7409V276.508H72.014V314.594H98.7409V337.445H72.014V383.148H98.7409V406H63.1051Z" fill="url(#paint7_linear_190_1007)"/>
<path d="M109.506 406V253.656H124.354V268.891H127.324V284.125H130.293V299.359H133.263V314.594H136.233V329.828H139.202V345.062H142.172V360.297H145.142V375.531H148.111V253.656H157.02V406H142.172V390.766H139.202V375.531H136.233V360.297H133.263V345.062H130.293V329.828H127.324V314.594H124.354V299.359H121.384V284.125H118.415V406H109.506Z" fill="url(#paint8_linear_190_1007)"/>
<path d="M167.785 406V253.656H203.421V276.508H176.694V314.594H203.421V337.445H176.694V383.148H203.421V406H167.785Z" fill="url(#paint9_linear_190_1007)"/>
<path d="M243.882 314.594V306.976H246.852V284.125H243.882V276.508H223.095V314.594H243.882ZM214.186 406V253.656H246.852V261.273H249.822V268.891H252.791V276.508H255.761V314.594H252.791V322.211H249.822V329.828H246.852V337.445H237.943V345.062H240.913V352.68H243.882V360.297H246.852V367.914H249.822V375.531H252.791V383.148H255.761V390.766H258.731V398.383H261.7V406H249.822V398.383H246.852V390.766H243.882V383.148H240.913V375.531H237.943V367.914H234.974V360.297H232.004V352.68H229.034V345.062H226.065V337.445H223.095V406H214.186Z" fill="url(#paint10_linear_190_1007)"/>
<path d="M306.431 337.445V329.828H303.461V314.594H300.491V299.359H297.522V284.125H294.552V299.359H291.582V314.594H288.613V329.828H285.643V337.445H306.431ZM267.825 406V383.148H270.795V367.914H273.765V345.062H276.734V329.828H279.704V314.594H282.674V299.359H285.643V284.125H288.613V268.891H291.582V253.656H300.491V268.891H303.461V284.125H306.431V299.359H309.4V314.594H312.37V329.828H315.34V345.062H318.309V367.914H321.279V383.148H324.249V406H315.34V390.766H312.37V375.531H309.4V360.297H282.674V375.531H279.704V390.766H276.734V406H267.825Z" fill="url(#paint11_linear_190_1007)"/>
<path d="M334.271 406V276.508H313.484V253.656H363.968V276.508H343.18V406H334.271Z" fill="url(#paint12_linear_190_1007)"/>
<path d="M397.469 383.148V375.531H403.408V367.914H406.378V360.297H409.348V345.062H412.317V314.594H409.348V299.359H406.378V291.742H403.408V284.125H397.469V276.508H388.56V284.125H382.621V291.742H379.651V299.359H376.682V314.594H373.712V345.062H376.682V360.297H379.651V367.914H382.621V375.531H388.56V383.148H397.469ZM385.59 406V398.383H376.682V390.766H373.712V383.148H370.742V375.531H367.773V360.297H364.803V299.359H367.773V284.125H370.742V276.508H373.712V268.891H376.682V261.273H385.59V253.656H400.439V261.273H409.348V268.891H412.317V276.508H415.287V284.125H418.257V299.359H421.226V360.297H418.257V375.531H415.287V383.148H412.317V390.766H409.348V398.383H400.439V406H385.59Z" fill="url(#paint13_linear_190_1007)"/>
<path d="M459.182 314.594V306.976H462.152V284.125H459.182V276.508H438.395V314.594H459.182ZM429.486 406V253.656H462.152V261.273H465.121V268.891H468.091V276.508H471.061V314.594H468.091V322.211H465.121V329.828H462.152V337.445H453.243V345.062H456.212V352.68H459.182V360.297H462.152V367.914H465.121V375.531H468.091V383.148H471.061V390.766H474.03V398.383H477V406H465.121V398.383H462.152V390.766H459.182V383.148H456.212V375.531H453.243V367.914H450.273V360.297H447.303V352.68H444.334V345.062H441.364V337.445H438.395V406H429.486Z" fill="url(#paint14_linear_190_1007)"/>
<defs>
<linearGradient id="paint0_linear_190_1007" x1="235.864" y1="0" x2="235.864" y2="253.656" gradientUnits="userSpaceOnUse">
<stop stop-color="#19E672"/>
<stop offset="0.291667" stop-color="#FF56FF"/>
<stop offset="0.640625" stop-color="#0101C5"/>
<stop offset="1" stop-color="#FFFF00"/>
</linearGradient>
<linearGradient id="paint1_linear_190_1007" x1="235.864" y1="0" x2="235.864" y2="253.656" gradientUnits="userSpaceOnUse">
<stop stop-color="#19E672"/>
<stop offset="0.291667" stop-color="#FF56FF"/>
<stop offset="0.640625" stop-color="#0101C5"/>
<stop offset="1" stop-color="#FFFF00"/>
</linearGradient>
<linearGradient id="paint2_linear_190_1007" x1="235.864" y1="0" x2="235.864" y2="253.656" gradientUnits="userSpaceOnUse">
<stop stop-color="#19E672"/>
<stop offset="0.291667" stop-color="#FF56FF"/>
<stop offset="0.640625" stop-color="#0101C5"/>
<stop offset="1" stop-color="#FFFF00"/>
</linearGradient>
<linearGradient id="paint3_linear_190_1007" x1="235.864" y1="0" x2="235.864" y2="253.656" gradientUnits="userSpaceOnUse">
<stop stop-color="#19E672"/>
<stop offset="0.291667" stop-color="#FF56FF"/>
<stop offset="0.640625" stop-color="#0101C5"/>
<stop offset="1" stop-color="#FFFF00"/>
</linearGradient>
<linearGradient id="paint4_linear_190_1007" x1="235.864" y1="0" x2="235.864" y2="253.656" gradientUnits="userSpaceOnUse">
<stop stop-color="#19E672"/>
<stop offset="0.291667" stop-color="#FF56FF"/>
<stop offset="0.640625" stop-color="#0101C5"/>
<stop offset="1" stop-color="#FFFF00"/>
</linearGradient>
<linearGradient id="paint5_linear_190_1007" x1="235.864" y1="0" x2="235.864" y2="253.656" gradientUnits="userSpaceOnUse">
<stop stop-color="#19E672"/>
<stop offset="0.291667" stop-color="#FF56FF"/>
<stop offset="0.640625" stop-color="#0101C5"/>
<stop offset="1" stop-color="#FFFF00"/>
</linearGradient>
<linearGradient id="paint6_linear_190_1007" x1="238.5" y1="253.656" x2="238.5" y2="406" gradientUnits="userSpaceOnUse">
<stop stop-color="#19E672"/>
<stop offset="0.291667" stop-color="#FF56FF"/>
<stop offset="0.640625" stop-color="#0101C5"/>
<stop offset="1" stop-color="#FFFF00"/>
</linearGradient>
<linearGradient id="paint7_linear_190_1007" x1="238.5" y1="253.656" x2="238.5" y2="406" gradientUnits="userSpaceOnUse">
<stop stop-color="#19E672"/>
<stop offset="0.291667" stop-color="#FF56FF"/>
<stop offset="0.640625" stop-color="#0101C5"/>
<stop offset="1" stop-color="#FFFF00"/>
</linearGradient>
<linearGradient id="paint8_linear_190_1007" x1="238.5" y1="253.656" x2="238.5" y2="406" gradientUnits="userSpaceOnUse">
<stop stop-color="#19E672"/>
<stop offset="0.291667" stop-color="#FF56FF"/>
<stop offset="0.640625" stop-color="#0101C5"/>
<stop offset="1" stop-color="#FFFF00"/>
</linearGradient>
<linearGradient id="paint9_linear_190_1007" x1="238.5" y1="253.656" x2="238.5" y2="406" gradientUnits="userSpaceOnUse">
<stop stop-color="#19E672"/>
<stop offset="0.291667" stop-color="#FF56FF"/>
<stop offset="0.640625" stop-color="#0101C5"/>
<stop offset="1" stop-color="#FFFF00"/>
</linearGradient>
<linearGradient id="paint10_linear_190_1007" x1="238.5" y1="253.656" x2="238.5" y2="406" gradientUnits="userSpaceOnUse">
<stop stop-color="#19E672"/>
<stop offset="0.291667" stop-color="#FF56FF"/>
<stop offset="0.640625" stop-color="#0101C5"/>
<stop offset="1" stop-color="#FFFF00"/>
</linearGradient>
<linearGradient id="paint11_linear_190_1007" x1="238.5" y1="253.656" x2="238.5" y2="406" gradientUnits="userSpaceOnUse">
<stop stop-color="#19E672"/>
<stop offset="0.291667" stop-color="#FF56FF"/>
<stop offset="0.640625" stop-color="#0101C5"/>
<stop offset="1" stop-color="#FFFF00"/>
</linearGradient>
<linearGradient id="paint12_linear_190_1007" x1="238.5" y1="253.656" x2="238.5" y2="406" gradientUnits="userSpaceOnUse">
<stop stop-color="#19E672"/>
<stop offset="0.291667" stop-color="#FF56FF"/>
<stop offset="0.640625" stop-color="#0101C5"/>
<stop offset="1" stop-color="#FFFF00"/>
</linearGradient>
<linearGradient id="paint13_linear_190_1007" x1="238.5" y1="253.656" x2="238.5" y2="406" gradientUnits="userSpaceOnUse">
<stop stop-color="#19E672"/>
<stop offset="0.291667" stop-color="#FF56FF"/>
<stop offset="0.640625" stop-color="#0101C5"/>
<stop offset="1" stop-color="#FFFF00"/>
</linearGradient>
<linearGradient id="paint14_linear_190_1007" x1="238.5" y1="253.656" x2="238.5" y2="406" gradientUnits="userSpaceOnUse">
<stop stop-color="#19E672"/>
<stop offset="0.291667" stop-color="#FF56FF"/>
<stop offset="0.640625" stop-color="#0101C5"/>
<stop offset="1" stop-color="#FFFF00"/>
</linearGradient>
</defs>
</svg>
