<svg width="1176" height="1082" viewBox="0 0 1176 1082" fill="none" xmlns="http://www.w3.org/2000/svg">
<path d="M112.367 270.4V236.6H123.604V135.2H112.367V101.4H33.7101V270.4H112.367ZM0 676V0H123.604V33.8H134.841V67.6H146.077V101.4H157.314V270.4H146.077V304.2H134.841V338H123.604V371.8H33.7101V676H0Z" fill="url(#paint0_linear_190_1001)"/>
<path d="M307.605 574.6V540.8H330.079V507H341.315V473.2H352.552V405.6H363.789V270.4H352.552V202.8H341.315V169H330.079V135.2H307.605V101.4H273.895V135.2H251.422V169H240.185V202.8H228.948V270.4H217.711V405.6H228.948V473.2H240.185V507H251.422V540.8H273.895V574.6H307.605ZM262.658 676V642.2H228.948V608.4H217.711V574.6H206.475V540.8H195.238V473.2H184.001V202.8H195.238V135.2H206.475V101.4H217.711V67.6H228.948V33.8H262.658V0H318.842V33.8H352.552V67.6H363.789V101.4H375.025V135.2H386.262V202.8H397.499V473.2H386.262V540.8H375.025V574.6H363.789V608.4H352.552V642.2H318.842V676H262.658Z" fill="url(#paint1_linear_190_1001)"/>
<path d="M476.858 676V642.2H454.385V608.4H443.148V574.6H431.911V507H465.621V540.8H476.858V574.6H533.042V540.8H544.278V439.4H533.042V405.6H521.805V371.8H488.095V338H454.385V304.2H443.148V270.4H431.911V101.4H443.148V67.6H454.385V33.8H465.621V0H544.278V33.8H555.515V67.6H566.752V135.2H533.042V101.4H476.858V135.2H465.621V236.6H488.095V270.4H521.805V304.2H544.278V338H566.752V405.6H577.989V574.6H566.752V608.4H555.515V642.2H533.042V676H476.858Z" fill="url(#paint2_linear_190_1001)"/>
<path d="M673.149 676V101.4H594.492V0H785.517V101.4H706.86V676H673.149Z" fill="url(#paint3_linear_190_1001)"/>
<path d="M807.639 676V0H942.479V101.4H841.349V270.4H942.479V371.8H841.349V574.6H942.479V676H807.639Z" fill="url(#paint4_linear_190_1001)"/>
<path d="M1095.58 270.4V236.6H1106.82V135.2H1095.58V101.4H1016.92V270.4H1095.58ZM983.213 676V0H1106.82V33.8H1118.05V67.6H1129.29V101.4H1140.53V270.4H1129.29V304.2H1118.05V338H1106.82V371.8H1073.11V405.6H1084.34V439.4H1095.58V473.2H1106.82V507H1118.05V540.8H1129.29V574.6H1140.53V608.4H1151.76V642.2H1163V676H1118.05V642.2H1106.82V608.4H1095.58V574.6H1084.34V540.8H1073.11V507H1061.87V473.2H1050.63V439.4H1039.4V405.6H1028.16V371.8H1016.92V676H983.213Z" fill="url(#paint5_linear_190_1001)"/>
<path d="M51.2498 1082V1061.7H29.2856V1041.4H21.9642V1021.1H14.6428V1000.8H7.3214V960.2H0V797.8H7.3214V757.2H14.6428V736.9H21.9642V716.6H29.2856V696.3H51.2498V676H87.8568V696.3H109.821V716.6H117.142V757.2H124.464V777.5H131.785V797.8H102.5V777.5H95.1782V757.2H80.5354V736.9H58.5712V757.2H43.9284V777.5H36.607V797.8H29.2856V838.4H21.9642V919.6H29.2856V960.2H36.607V980.5H43.9284V1000.8H58.5712V1021.1H80.5354V1000.8H95.1782V980.5H102.5V960.2H109.821V919.6H65.8926V858.7H131.785V980.5H124.464V1000.8H117.142V1041.4H109.821V1061.7H87.8568V1082H51.2498Z" fill="url(#paint6_linear_190_1001)"/>
<path d="M155.58 1082V676H243.437V736.9H177.544V838.4H243.437V899.3H177.544V1021.1H243.437V1082H155.58Z" fill="url(#paint7_linear_190_1001)"/>
<path d="M269.977 1082V676H306.584V716.6H313.905V757.2H321.226V797.8H328.548V838.4H335.869V879H343.191V919.6H350.512V960.2H357.833V1000.8H365.155V676H387.119V1082H350.512V1041.4H343.191V1000.8H335.869V960.2H328.548V919.6H321.226V879H313.905V838.4H306.584V797.8H299.262V757.2H291.941V1082H269.977Z" fill="url(#paint8_linear_190_1001)"/>
<path d="M413.659 1082V676H501.516V736.9H435.623V838.4H501.516V899.3H435.623V1021.1H501.516V1082H413.659Z" fill="url(#paint9_linear_190_1001)"/>
<path d="M601.27 838.4V818.1H608.591V757.2H601.27V736.9H550.02V838.4H601.27ZM528.056 1082V676H608.591V696.3H615.913V716.6H623.234V736.9H630.556V838.4H623.234V858.7H615.913V879H608.591V899.3H586.627V919.6H593.949V939.9H601.27V960.2H608.591V980.5H615.913V1000.8H623.234V1021.1H630.556V1041.4H637.877V1061.7H645.198V1082H615.913V1061.7H608.591V1041.4H601.27V1021.1H593.949V1000.8H586.627V980.5H579.306V960.2H571.984V939.9H564.663V919.6H557.342V899.3H550.02V1082H528.056Z" fill="url(#paint10_linear_190_1001)"/>
<path d="M755.477 899.3V879H748.156V838.4H740.834V797.8H733.513V757.2H726.191V797.8H718.87V838.4H711.549V879H704.227V899.3H755.477ZM660.299 1082V1021.1H667.62V980.5H674.942V919.6H682.263V879H689.584V838.4H696.906V797.8H704.227V757.2H711.549V716.6H718.87V676H740.834V716.6H748.156V757.2H755.477V797.8H762.798V838.4H770.12V879H777.441V919.6H784.763V980.5H792.084V1021.1H799.405V1082H777.441V1041.4H770.12V1000.8H762.798V960.2H696.906V1000.8H689.584V1041.4H682.263V1082H660.299Z" fill="url(#paint11_linear_190_1001)"/>
<path d="M824.115 1082V736.9H772.865V676H897.329V736.9H846.079V1082H824.115Z" fill="url(#paint12_linear_190_1001)"/>
<path d="M979.924 1021.1V1000.8H994.567V980.5H1001.89V960.2H1009.21V919.6H1016.53V838.4H1009.21V797.8H1001.89V777.5H994.567V757.2H979.924V736.9H957.96V757.2H943.317V777.5H935.995V797.8H928.674V838.4H921.353V919.6H928.674V960.2H935.995V980.5H943.317V1000.8H957.96V1021.1H979.924ZM950.638 1082V1061.7H928.674V1041.4H921.353V1021.1H914.031V1000.8H906.71V960.2H899.388V797.8H906.71V757.2H914.031V736.9H921.353V716.6H928.674V696.3H950.638V676H987.245V696.3H1009.21V716.6H1016.53V736.9H1023.85V757.2H1031.17V797.8H1038.49V960.2H1031.17V1000.8H1023.85V1021.1H1016.53V1041.4H1009.21V1061.7H987.245V1082H950.638Z" fill="url(#paint13_linear_190_1001)"/>
<path d="M1132.07 838.4V818.1H1139.39V757.2H1132.07V736.9H1080.82V838.4H1132.07ZM1058.86 1082V676H1139.39V696.3H1146.71V716.6H1154.04V736.9H1161.36V838.4H1154.04V858.7H1146.71V879H1139.39V899.3H1117.43V919.6H1124.75V939.9H1132.07V960.2H1139.39V980.5H1146.71V1000.8H1154.04V1021.1H1161.36V1041.4H1168.68V1061.7H1176V1082H1146.71V1061.7H1139.39V1041.4H1132.07V1021.1H1124.75V1000.8H1117.43V980.5H1110.11V960.2H1102.79V939.9H1095.46V919.6H1088.14V899.3H1080.82V1082H1058.86Z" fill="url(#paint14_linear_190_1001)"/>
<defs>
<linearGradient id="paint0_linear_190_1001" x1="581.5" y1="0" x2="581.5" y2="676" gradientUnits="userSpaceOnUse">
<stop stop-color="#19E672"/>
<stop offset="0.291667" stop-color="#FF56FF"/>
<stop offset="0.640625" stop-color="#0101C5"/>
<stop offset="1" stop-color="#FFFF00"/>
</linearGradient>
<linearGradient id="paint1_linear_190_1001" x1="581.5" y1="0" x2="581.5" y2="676" gradientUnits="userSpaceOnUse">
<stop stop-color="#19E672"/>
<stop offset="0.291667" stop-color="#FF56FF"/>
<stop offset="0.640625" stop-color="#0101C5"/>
<stop offset="1" stop-color="#FFFF00"/>
</linearGradient>
<linearGradient id="paint2_linear_190_1001" x1="581.5" y1="0" x2="581.5" y2="676" gradientUnits="userSpaceOnUse">
<stop stop-color="#19E672"/>
<stop offset="0.291667" stop-color="#FF56FF"/>
<stop offset="0.640625" stop-color="#0101C5"/>
<stop offset="1" stop-color="#FFFF00"/>
</linearGradient>
<linearGradient id="paint3_linear_190_1001" x1="581.5" y1="0" x2="581.5" y2="676" gradientUnits="userSpaceOnUse">
<stop stop-color="#19E672"/>
<stop offset="0.291667" stop-color="#FF56FF"/>
<stop offset="0.640625" stop-color="#0101C5"/>
<stop offset="1" stop-color="#FFFF00"/>
</linearGradient>
<linearGradient id="paint4_linear_190_1001" x1="581.5" y1="0" x2="581.5" y2="676" gradientUnits="userSpaceOnUse">
<stop stop-color="#19E672"/>
<stop offset="0.291667" stop-color="#FF56FF"/>
<stop offset="0.640625" stop-color="#0101C5"/>
<stop offset="1" stop-color="#FFFF00"/>
</linearGradient>
<linearGradient id="paint5_linear_190_1001" x1="581.5" y1="0" x2="581.5" y2="676" gradientUnits="userSpaceOnUse">
<stop stop-color="#19E672"/>
<stop offset="0.291667" stop-color="#FF56FF"/>
<stop offset="0.640625" stop-color="#0101C5"/>
<stop offset="1" stop-color="#FFFF00"/>
</linearGradient>
<linearGradient id="paint6_linear_190_1001" x1="588" y1="676" x2="588" y2="1082" gradientUnits="userSpaceOnUse">
<stop stop-color="#19E672"/>
<stop offset="0.291667" stop-color="#FF56FF"/>
<stop offset="0.640625" stop-color="#0101C5"/>
<stop offset="1" stop-color="#FFFF00"/>
</linearGradient>
<linearGradient id="paint7_linear_190_1001" x1="588" y1="676" x2="588" y2="1082" gradientUnits="userSpaceOnUse">
<stop stop-color="#19E672"/>
<stop offset="0.291667" stop-color="#FF56FF"/>
<stop offset="0.640625" stop-color="#0101C5"/>
<stop offset="1" stop-color="#FFFF00"/>
</linearGradient>
<linearGradient id="paint8_linear_190_1001" x1="588" y1="676" x2="588" y2="1082" gradientUnits="userSpaceOnUse">
<stop stop-color="#19E672"/>
<stop offset="0.291667" stop-color="#FF56FF"/>
<stop offset="0.640625" stop-color="#0101C5"/>
<stop offset="1" stop-color="#FFFF00"/>
</linearGradient>
<linearGradient id="paint9_linear_190_1001" x1="588" y1="676" x2="588" y2="1082" gradientUnits="userSpaceOnUse">
<stop stop-color="#19E672"/>
<stop offset="0.291667" stop-color="#FF56FF"/>
<stop offset="0.640625" stop-color="#0101C5"/>
<stop offset="1" stop-color="#FFFF00"/>
</linearGradient>
<linearGradient id="paint10_linear_190_1001" x1="588" y1="676" x2="588" y2="1082" gradientUnits="userSpaceOnUse">
<stop stop-color="#19E672"/>
<stop offset="0.291667" stop-color="#FF56FF"/>
<stop offset="0.640625" stop-color="#0101C5"/>
<stop offset="1" stop-color="#FFFF00"/>
</linearGradient>
<linearGradient id="paint11_linear_190_1001" x1="588" y1="676" x2="588" y2="1082" gradientUnits="userSpaceOnUse">
<stop stop-color="#19E672"/>
<stop offset="0.291667" stop-color="#FF56FF"/>
<stop offset="0.640625" stop-color="#0101C5"/>
<stop offset="1" stop-color="#FFFF00"/>
</linearGradient>
<linearGradient id="paint12_linear_190_1001" x1="588" y1="676" x2="588" y2="1082" gradientUnits="userSpaceOnUse">
<stop stop-color="#19E672"/>
<stop offset="0.291667" stop-color="#FF56FF"/>
<stop offset="0.640625" stop-color="#0101C5"/>
<stop offset="1" stop-color="#FFFF00"/>
</linearGradient>
<linearGradient id="paint13_linear_190_1001" x1="588" y1="676" x2="588" y2="1082" gradientUnits="userSpaceOnUse">
<stop stop-color="#19E672"/>
<stop offset="0.291667" stop-color="#FF56FF"/>
<stop offset="0.640625" stop-color="#0101C5"/>
<stop offset="1" stop-color="#FFFF00"/>
</linearGradient>
<linearGradient id="paint14_linear_190_1001" x1="588" y1="676" x2="588" y2="1082" gradientUnits="userSpaceOnUse">
<stop stop-color="#19E672"/>
<stop offset="0.291667" stop-color="#FF56FF"/>
<stop offset="0.640625" stop-color="#0101C5"/>
<stop offset="1" stop-color="#FFFF00"/>
</linearGradient>
</defs>
</svg>
