<svg width="744" height="676" viewBox="0 0 744 676" fill="none" xmlns="http://www.w3.org/2000/svg">
<path d="M71.0894 166.687V145.476H78.1984V81.8436H71.0894V60.6327H21.3268V166.687H71.0894ZM0 421.218V-3H78.1984V18.2109H85.3073V39.4218H92.4162V60.6327H99.5252V166.687H92.4162V187.898H85.3073V209.109H78.1984V230.32H21.3268V421.218H0Z" fill="url(#paint0_linear_190_1004)"/>
<path d="M194.607 357.585V336.375H208.825V315.164H215.934V293.953H223.043V251.531H230.152V166.687H223.043V124.265H215.934V103.055H208.825V81.8436H194.607V60.6327H173.28V81.8436H159.063V103.055H151.954V124.265H144.845V166.687H137.736V251.531H144.845V293.953H151.954V315.164H159.063V336.375H173.28V357.585H194.607ZM166.172 421.218V400.007H144.845V378.796H137.736V357.585H130.627V336.375H123.518V293.953H116.409V124.265H123.518V81.8436H130.627V60.6327H137.736V39.4218H144.845V18.2109H166.172V-3H201.716V18.2109H223.043V39.4218H230.152V60.6327H237.261V81.8436H244.37V124.265H251.479V293.953H244.37V336.375H237.261V357.585H230.152V378.796H223.043V400.007H201.716V421.218H166.172Z" fill="url(#paint1_linear_190_1004)"/>
<path d="M301.686 421.218V400.007H287.468V378.796H280.359V357.585H273.25V315.164H294.577V336.375H301.686V357.585H337.23V336.375H344.339V272.742H337.23V251.531H330.122V230.32H308.795V209.109H287.468V187.898H280.359V166.687H273.25V60.6327H280.359V39.4218H287.468V18.2109H294.577V-3H344.339V18.2109H351.448V39.4218H358.557V81.8436H337.23V60.6327H301.686V81.8436H294.577V145.476H308.795V166.687H330.122V187.898H344.339V209.109H358.557V251.531H365.666V357.585H358.557V378.796H351.448V400.007H337.23V421.218H301.686Z" fill="url(#paint2_linear_190_1004)"/>
<path d="M425.87 421.218V60.6327H376.107V-3H496.959V60.6327H447.197V421.218H425.87Z" fill="url(#paint3_linear_190_1004)"/>
<path d="M510.955 421.218V-3H596.263V60.6327H532.282V166.687H596.263V230.32H532.282V357.585H596.263V421.218H510.955Z" fill="url(#paint4_linear_190_1004)"/>
<path d="M693.122 166.687V145.476H700.231V81.8436H693.122V60.6327H643.359V166.687H693.122ZM622.032 421.218V-3H700.231V18.2109H707.34V39.4218H714.449V60.6327H721.558V166.687H714.449V187.898H707.34V209.109H700.231V230.32H678.904V251.531H686.013V272.742H693.122V293.953H700.231V315.164H707.34V336.375H714.449V357.585H721.558V378.796H728.667V400.007H735.776V421.218H707.34V400.007H700.231V378.796H693.122V357.585H686.013V336.375H678.904V315.164H671.795V293.953H664.686V272.742H657.577V251.531H650.468V230.32H643.359V421.218H622.032Z" fill="url(#paint5_linear_190_1004)"/>
<path d="M32.4233 676V663.261H18.5276V650.522H13.8957V637.783H9.26381V625.044H4.63191V599.565H0V497.653H4.63191V472.175H9.26381V459.435H13.8957V446.696H18.5276V433.957H32.4233V421.218H55.5829V433.957H69.4786V446.696H74.1105V472.175H78.7424V484.914H83.3743V497.653H64.8467V484.914H60.2148V472.175H50.951V459.435H37.0553V472.175H27.7914V484.914H23.1595V497.653H18.5276V523.131H13.8957V574.087H18.5276V599.565H23.1595V612.305H27.7914V625.044H37.0553V637.783H50.951V625.044H60.2148V612.305H64.8467V599.565H69.4786V574.087H41.6872V535.87H83.3743V612.305H78.7424V625.044H74.1105V650.522H69.4786V663.261H55.5829V676H32.4233Z" fill="url(#paint6_linear_190_1004)"/>
<path d="M98.428 676V421.218H154.011V459.435H112.324V523.131H154.011V561.348H112.324V637.783H154.011V676H98.428Z" fill="url(#paint7_linear_190_1004)"/>
<path d="M170.802 676V421.218H193.961V446.696H198.593V472.175H203.225V497.653H207.857V523.131H212.489V548.609H217.121V574.087H221.753V599.565H226.384V625.044H231.016V421.218H244.912V676H221.753V650.522H217.121V625.044H212.489V599.565H207.857V574.087H203.225V548.609H198.593V523.131H193.961V497.653H189.329V472.175H184.697V676H170.802Z" fill="url(#paint8_linear_190_1004)"/>
<path d="M261.703 676V421.218H317.286V459.435H275.598V523.131H317.286V561.348H275.598V637.783H317.286V676H261.703Z" fill="url(#paint9_linear_190_1004)"/>
<path d="M380.395 523.131V510.392H385.027V472.175H380.395V459.435H347.972V523.131H380.395ZM334.076 676V421.218H385.027V433.957H389.659V446.696H394.291V459.435H398.923V523.131H394.291V535.87H389.659V548.609H385.027V561.348H371.132V574.087H375.763V586.826H380.395V599.565H385.027V612.305H389.659V625.044H394.291V637.783H398.923V650.522H403.555V663.261H408.187V676H389.659V663.261H385.027V650.522H380.395V637.783H375.763V625.044H371.132V612.305H366.5V599.565H361.868V586.826H357.236V574.087H352.604V561.348H347.972V676H334.076Z" fill="url(#paint10_linear_190_1004)"/>
<path d="M477.955 561.348V548.609H473.323V523.131H468.691V497.653H464.059V472.175H459.427V497.653H454.795V523.131H450.163V548.609H445.532V561.348H477.955ZM417.74 676V637.783H422.372V612.305H427.004V574.087H431.636V548.609H436.268V523.131H440.9V497.653H445.532V472.175H450.163V446.696H454.795V421.218H468.691V446.696H473.323V472.175H477.955V497.653H482.587V523.131H487.219V548.609H491.851V574.087H496.483V612.305H501.114V637.783H505.746V676H491.851V650.522H487.219V625.044H482.587V599.565H440.9V625.044H436.268V650.522H431.636V676H417.74Z" fill="url(#paint11_linear_190_1004)"/>
<path d="M521.379 676V459.435H488.956V421.218H567.698V459.435H535.275V676H521.379Z" fill="url(#paint12_linear_190_1004)"/>
<path d="M619.952 637.783V625.044H629.216V612.305H633.847V599.565H638.479V574.087H643.111V523.131H638.479V497.653H633.847V484.914H629.216V472.175H619.952V459.435H606.056V472.175H596.792V484.914H592.16V497.653H587.528V523.131H582.897V574.087H587.528V599.565H592.16V612.305H596.792V625.044H606.056V637.783H619.952ZM601.424 676V663.261H587.528V650.522H582.897V637.783H578.265V625.044H573.633V599.565H569.001V497.653H573.633V472.175H578.265V459.435H582.897V446.696H587.528V433.957H601.424V421.218H624.584V433.957H638.479V446.696H643.111V459.435H647.743V472.175H652.375V497.653H657.007V599.565H652.375V625.044H647.743V637.783H643.111V650.522H638.479V663.261H624.584V676H601.424Z" fill="url(#paint13_linear_190_1004)"/>
<path d="M716.209 523.131V510.392H720.84V472.175H716.209V459.435H683.785V523.131H716.209ZM669.89 676V421.218H720.84V433.957H725.472V446.696H730.104V459.435H734.736V523.131H730.104V535.87H725.472V548.609H720.84V561.348H706.945V574.087H711.577V586.826H716.209V599.565H720.84V612.305H725.472V625.044H730.104V637.783H734.736V650.522H739.368V663.261H744V676H725.472V663.261H720.84V650.522H716.209V637.783H711.577V625.044H706.945V612.305H702.313V599.565H697.681V586.826H693.049V574.087H688.417V561.348H683.785V676H669.89Z" fill="url(#paint14_linear_190_1004)"/>
<defs>
<linearGradient id="paint0_linear_190_1004" x1="367.888" y1="-3" x2="367.888" y2="421.218" gradientUnits="userSpaceOnUse">
<stop stop-color="#19E672"/>
<stop offset="0.291667" stop-color="#FF56FF"/>
<stop offset="0.640625" stop-color="#0101C5"/>
<stop offset="1" stop-color="#FFFF00"/>
</linearGradient>
<linearGradient id="paint1_linear_190_1004" x1="367.888" y1="-3" x2="367.888" y2="421.218" gradientUnits="userSpaceOnUse">
<stop stop-color="#19E672"/>
<stop offset="0.291667" stop-color="#FF56FF"/>
<stop offset="0.640625" stop-color="#0101C5"/>
<stop offset="1" stop-color="#FFFF00"/>
</linearGradient>
<linearGradient id="paint2_linear_190_1004" x1="367.888" y1="-3" x2="367.888" y2="421.218" gradientUnits="userSpaceOnUse">
<stop stop-color="#19E672"/>
<stop offset="0.291667" stop-color="#FF56FF"/>
<stop offset="0.640625" stop-color="#0101C5"/>
<stop offset="1" stop-color="#FFFF00"/>
</linearGradient>
<linearGradient id="paint3_linear_190_1004" x1="367.888" y1="-3" x2="367.888" y2="421.218" gradientUnits="userSpaceOnUse">
<stop stop-color="#19E672"/>
<stop offset="0.291667" stop-color="#FF56FF"/>
<stop offset="0.640625" stop-color="#0101C5"/>
<stop offset="1" stop-color="#FFFF00"/>
</linearGradient>
<linearGradient id="paint4_linear_190_1004" x1="367.888" y1="-3" x2="367.888" y2="421.218" gradientUnits="userSpaceOnUse">
<stop stop-color="#19E672"/>
<stop offset="0.291667" stop-color="#FF56FF"/>
<stop offset="0.640625" stop-color="#0101C5"/>
<stop offset="1" stop-color="#FFFF00"/>
</linearGradient>
<linearGradient id="paint5_linear_190_1004" x1="367.888" y1="-3" x2="367.888" y2="421.218" gradientUnits="userSpaceOnUse">
<stop stop-color="#19E672"/>
<stop offset="0.291667" stop-color="#FF56FF"/>
<stop offset="0.640625" stop-color="#0101C5"/>
<stop offset="1" stop-color="#FFFF00"/>
</linearGradient>
<linearGradient id="paint6_linear_190_1004" x1="372" y1="421.218" x2="372" y2="676" gradientUnits="userSpaceOnUse">
<stop stop-color="#19E672"/>
<stop offset="0.291667" stop-color="#FF56FF"/>
<stop offset="0.640625" stop-color="#0101C5"/>
<stop offset="1" stop-color="#FFFF00"/>
</linearGradient>
<linearGradient id="paint7_linear_190_1004" x1="372" y1="421.218" x2="372" y2="676" gradientUnits="userSpaceOnUse">
<stop stop-color="#19E672"/>
<stop offset="0.291667" stop-color="#FF56FF"/>
<stop offset="0.640625" stop-color="#0101C5"/>
<stop offset="1" stop-color="#FFFF00"/>
</linearGradient>
<linearGradient id="paint8_linear_190_1004" x1="372" y1="421.218" x2="372" y2="676" gradientUnits="userSpaceOnUse">
<stop stop-color="#19E672"/>
<stop offset="0.291667" stop-color="#FF56FF"/>
<stop offset="0.640625" stop-color="#0101C5"/>
<stop offset="1" stop-color="#FFFF00"/>
</linearGradient>
<linearGradient id="paint9_linear_190_1004" x1="372" y1="421.218" x2="372" y2="676" gradientUnits="userSpaceOnUse">
<stop stop-color="#19E672"/>
<stop offset="0.291667" stop-color="#FF56FF"/>
<stop offset="0.640625" stop-color="#0101C5"/>
<stop offset="1" stop-color="#FFFF00"/>
</linearGradient>
<linearGradient id="paint10_linear_190_1004" x1="372" y1="421.218" x2="372" y2="676" gradientUnits="userSpaceOnUse">
<stop stop-color="#19E672"/>
<stop offset="0.291667" stop-color="#FF56FF"/>
<stop offset="0.640625" stop-color="#0101C5"/>
<stop offset="1" stop-color="#FFFF00"/>
</linearGradient>
<linearGradient id="paint11_linear_190_1004" x1="372" y1="421.218" x2="372" y2="676" gradientUnits="userSpaceOnUse">
<stop stop-color="#19E672"/>
<stop offset="0.291667" stop-color="#FF56FF"/>
<stop offset="0.640625" stop-color="#0101C5"/>
<stop offset="1" stop-color="#FFFF00"/>
</linearGradient>
<linearGradient id="paint12_linear_190_1004" x1="372" y1="421.218" x2="372" y2="676" gradientUnits="userSpaceOnUse">
<stop stop-color="#19E672"/>
<stop offset="0.291667" stop-color="#FF56FF"/>
<stop offset="0.640625" stop-color="#0101C5"/>
<stop offset="1" stop-color="#FFFF00"/>
</linearGradient>
<linearGradient id="paint13_linear_190_1004" x1="372" y1="421.218" x2="372" y2="676" gradientUnits="userSpaceOnUse">
<stop stop-color="#19E672"/>
<stop offset="0.291667" stop-color="#FF56FF"/>
<stop offset="0.640625" stop-color="#0101C5"/>
<stop offset="1" stop-color="#FFFF00"/>
</linearGradient>
<linearGradient id="paint14_linear_190_1004" x1="372" y1="421.218" x2="372" y2="676" gradientUnits="userSpaceOnUse">
<stop stop-color="#19E672"/>
<stop offset="0.291667" stop-color="#FF56FF"/>
<stop offset="0.640625" stop-color="#0101C5"/>
<stop offset="1" stop-color="#FFFF00"/>
</linearGradient>
</defs>
</svg>
