<svg width="268" height="241" viewBox="0 0 268 241" fill="none" xmlns="http://www.w3.org/2000/svg">
<path d="M25.6075 60.2277V52.6993H28.1682V30.1139H25.6075V22.5854H7.68224V60.2277H25.6075ZM0 150.569V0H28.1682V7.52847H30.729V15.0569H33.2897V22.5854H35.8505V60.2277H33.2897V67.7562H30.729V75.2847H28.1682V82.8131H7.68224V150.569H0Z" fill="url(#paint0_linear_190_1010)"/>
<path d="M70.1005 127.984V120.455H75.222V112.927H77.7827V105.399H80.3435V90.3416H82.9042V60.2277H80.3435V45.1708H77.7827V37.6423H75.222V30.1139H70.1005V22.5854H62.4182V30.1139H57.2967V37.6423H54.736V45.1708H52.1752V60.2277H49.6145V90.3416H52.1752V105.399H54.736V112.927H57.2967V120.455H62.4182V127.984H70.1005ZM59.8575 150.569V143.041H52.1752V135.512H49.6145V127.984H47.0537V120.455H44.493V105.399H41.9322V45.1708H44.493V30.1139H47.0537V22.5854H49.6145V15.0569H52.1752V7.52847H59.8575V0H72.6612V7.52847H80.3435V15.0569H82.9042V22.5854H85.465V30.1139H88.0257V45.1708H90.5865V105.399H88.0257V120.455H85.465V127.984H82.9042V135.512H80.3435V143.041H72.6612V150.569H59.8575Z" fill="url(#paint1_linear_190_1010)"/>
<path d="M108.672 150.569V143.041H103.55V135.512H100.989V127.984H98.4287V112.927H106.111V120.455H108.672V127.984H121.475V120.455H124.036V97.8701H121.475V90.3416H118.915V82.8131H111.232V75.2847H103.55V67.7562H100.989V60.2277H98.4287V22.5854H100.989V15.0569H103.55V7.52847H106.111V0H124.036V7.52847H126.597V15.0569H129.158V30.1139H121.475V22.5854H108.672V30.1139H106.111V52.6993H111.232V60.2277H118.915V67.7562H124.036V75.2847H129.158V90.3416H131.718V127.984H129.158V135.512H126.597V143.041H121.475V150.569H108.672Z" fill="url(#paint2_linear_190_1010)"/>
<path d="M153.405 150.569V22.5854H135.48V0H179.012V22.5854H161.087V150.569H153.405Z" fill="url(#paint3_linear_190_1010)"/>
<path d="M184.054 150.569V0H214.783V22.5854H191.736V60.2277H214.783V82.8131H191.736V127.984H214.783V150.569H184.054Z" fill="url(#paint4_linear_190_1010)"/>
<path d="M249.673 60.2277V52.6993H252.234V30.1139H249.673V22.5854H231.748V60.2277H249.673ZM224.065 150.569V0H252.234V7.52847H254.794V15.0569H257.355V22.5854H259.916V60.2277H257.355V67.7562H254.794V75.2847H252.234V82.8131H244.551V90.3416H247.112V97.8701H249.673V105.399H252.234V112.927H254.794V120.455H257.355V127.984H259.916V135.512H262.477V143.041H265.037V150.569H254.794V143.041H252.234V135.512H249.673V127.984H247.112V120.455H244.551V112.927H241.991V105.399H239.43V97.8701H236.869V90.3416H234.308V82.8131H231.748V150.569H224.065Z" fill="url(#paint5_linear_190_1010)"/>
<path d="M11.6794 241V236.478H6.67393V231.957H5.00545V227.435H3.33696V222.914H1.66848V213.871H0V177.699H1.66848V168.655H3.33696V164.134H5.00545V159.612H6.67393V155.091H11.6794V150.569H20.0218V155.091H25.0272V159.612H26.6957V168.655H28.3642V173.177H30.0327V177.699H23.3588V173.177H21.6903V168.655H18.3533V164.134H13.3479V168.655H10.0109V173.177H8.34241V177.699H6.67393V186.742H5.00545V204.828H6.67393V213.871H8.34241V218.392H10.0109V222.914H13.3479V227.435H18.3533V222.914H21.6903V218.392H23.3588V213.871H25.0272V204.828H15.0163V191.263H30.0327V218.392H28.3642V222.914H26.6957V231.957H25.0272V236.478H20.0218V241H11.6794Z" fill="url(#paint6_linear_190_1010)"/>
<path d="M35.4552 241V150.569H55.477V164.134H40.4607V186.742H55.477V200.306H40.4607V227.435H55.477V241H35.4552Z" fill="url(#paint7_linear_190_1010)"/>
<path d="M61.5253 241V150.569H69.8677V159.612H71.5362V168.655H73.2047V177.699H74.8731V186.742H76.5416V195.785H78.2101V204.828H79.8786V213.871H81.5471V222.914H83.2156V150.569H88.221V241H79.8786V231.957H78.2101V222.914H76.5416V213.871H74.8731V204.828H73.2047V195.785H71.5362V186.742H69.8677V177.699H68.1992V168.655H66.5307V241H61.5253Z" fill="url(#paint8_linear_190_1010)"/>
<path d="M94.2693 241V150.569H114.291V164.134H99.2747V186.742H114.291V200.306H99.2747V227.435H114.291V241H94.2693Z" fill="url(#paint9_linear_190_1010)"/>
<path d="M137.024 186.742V182.22H138.693V168.655H137.024V164.134H125.345V186.742H137.024ZM120.339 241V150.569H138.693V155.091H140.361V159.612H142.03V164.134H143.698V186.742H142.03V191.263H140.361V195.785H138.693V200.306H133.687V204.828H135.356V209.349H137.024V213.871H138.693V218.392H140.361V222.914H142.03V227.435H143.698V231.957H145.367V236.478H147.035V241H140.361V236.478H138.693V231.957H137.024V227.435H135.356V222.914H133.687V218.392H132.019V213.871H130.35V209.349H128.682V204.828H127.013V200.306H125.345V241H120.339Z" fill="url(#paint10_linear_190_1010)"/>
<path d="M172.167 200.306V195.785H170.498V186.742H168.83V177.699H167.161V168.655H165.493V177.699H163.824V186.742H162.156V195.785H160.487V200.306H172.167ZM150.476 241V227.435H152.145V218.392H153.813V204.828H155.482V195.785H157.15V186.742H158.819V177.699H160.487V168.655H162.156V159.612H163.824V150.569H168.83V159.612H170.498V168.655H172.167V177.699H173.835V186.742H175.503V195.785H177.172V204.828H178.84V218.392H180.509V227.435H182.177V241H177.172V231.957H175.503V222.914H173.835V213.871H158.819V222.914H157.15V231.957H155.482V241H150.476Z" fill="url(#paint11_linear_190_1010)"/>
<path d="M187.809 241V164.134H176.129V150.569H204.493V164.134H192.814V241H187.809Z" fill="url(#paint12_linear_190_1010)"/>
<path d="M223.316 227.435V222.914H226.653V218.392H228.321V213.871H229.99V204.828H231.658V186.742H229.99V177.699H228.321V173.177H226.653V168.655H223.316V164.134H218.311V168.655H214.974V173.177H213.305V177.699H211.637V186.742H209.968V204.828H211.637V213.871H213.305V218.392H214.974V222.914H218.311V227.435H223.316ZM216.642 241V236.478H211.637V231.957H209.968V227.435H208.3V222.914H206.631V213.871H204.963V177.699H206.631V168.655H208.3V164.134H209.968V159.612H211.637V155.091H216.642V150.569H224.984V155.091H229.99V159.612H231.658V164.134H233.327V168.655H234.995V177.699H236.664V213.871H234.995V222.914H233.327V227.435H231.658V231.957H229.99V236.478H224.984V241H216.642Z" fill="url(#paint13_linear_190_1010)"/>
<path d="M257.989 186.742V182.22H259.658V168.655H257.989V164.134H246.31V186.742H257.989ZM241.304 241V150.569H259.658V155.091H261.326V159.612H262.995V164.134H264.663V186.742H262.995V191.263H261.326V195.785H259.658V200.306H254.652V204.828H256.321V209.349H257.989V213.871H259.658V218.392H261.326V222.914H262.995V227.435H264.663V231.957H266.332V236.478H268V241H261.326V236.478H259.658V231.957H257.989V227.435H256.321V222.914H254.652V218.392H252.984V213.871H251.315V209.349H249.647V204.828H247.978V200.306H246.31V241H241.304Z" fill="url(#paint14_linear_190_1010)"/>
<defs>
<linearGradient id="paint0_linear_190_1010" x1="132.519" y1="0" x2="132.519" y2="150.569" gradientUnits="userSpaceOnUse">
<stop stop-color="#19E672"/>
<stop offset="0.291667" stop-color="#FF56FF"/>
<stop offset="0.640625" stop-color="#0101C5"/>
<stop offset="1" stop-color="#FFFF00"/>
</linearGradient>
<linearGradient id="paint1_linear_190_1010" x1="132.519" y1="0" x2="132.519" y2="150.569" gradientUnits="userSpaceOnUse">
<stop stop-color="#19E672"/>
<stop offset="0.291667" stop-color="#FF56FF"/>
<stop offset="0.640625" stop-color="#0101C5"/>
<stop offset="1" stop-color="#FFFF00"/>
</linearGradient>
<linearGradient id="paint2_linear_190_1010" x1="132.519" y1="0" x2="132.519" y2="150.569" gradientUnits="userSpaceOnUse">
<stop stop-color="#19E672"/>
<stop offset="0.291667" stop-color="#FF56FF"/>
<stop offset="0.640625" stop-color="#0101C5"/>
<stop offset="1" stop-color="#FFFF00"/>
</linearGradient>
<linearGradient id="paint3_linear_190_1010" x1="132.519" y1="0" x2="132.519" y2="150.569" gradientUnits="userSpaceOnUse">
<stop stop-color="#19E672"/>
<stop offset="0.291667" stop-color="#FF56FF"/>
<stop offset="0.640625" stop-color="#0101C5"/>
<stop offset="1" stop-color="#FFFF00"/>
</linearGradient>
<linearGradient id="paint4_linear_190_1010" x1="132.519" y1="0" x2="132.519" y2="150.569" gradientUnits="userSpaceOnUse">
<stop stop-color="#19E672"/>
<stop offset="0.291667" stop-color="#FF56FF"/>
<stop offset="0.640625" stop-color="#0101C5"/>
<stop offset="1" stop-color="#FFFF00"/>
</linearGradient>
<linearGradient id="paint5_linear_190_1010" x1="132.519" y1="0" x2="132.519" y2="150.569" gradientUnits="userSpaceOnUse">
<stop stop-color="#19E672"/>
<stop offset="0.291667" stop-color="#FF56FF"/>
<stop offset="0.640625" stop-color="#0101C5"/>
<stop offset="1" stop-color="#FFFF00"/>
</linearGradient>
<linearGradient id="paint6_linear_190_1010" x1="134" y1="150.569" x2="134" y2="241" gradientUnits="userSpaceOnUse">
<stop stop-color="#19E672"/>
<stop offset="0.291667" stop-color="#FF56FF"/>
<stop offset="0.640625" stop-color="#0101C5"/>
<stop offset="1" stop-color="#FFFF00"/>
</linearGradient>
<linearGradient id="paint7_linear_190_1010" x1="134" y1="150.569" x2="134" y2="241" gradientUnits="userSpaceOnUse">
<stop stop-color="#19E672"/>
<stop offset="0.291667" stop-color="#FF56FF"/>
<stop offset="0.640625" stop-color="#0101C5"/>
<stop offset="1" stop-color="#FFFF00"/>
</linearGradient>
<linearGradient id="paint8_linear_190_1010" x1="134" y1="150.569" x2="134" y2="241" gradientUnits="userSpaceOnUse">
<stop stop-color="#19E672"/>
<stop offset="0.291667" stop-color="#FF56FF"/>
<stop offset="0.640625" stop-color="#0101C5"/>
<stop offset="1" stop-color="#FFFF00"/>
</linearGradient>
<linearGradient id="paint9_linear_190_1010" x1="134" y1="150.569" x2="134" y2="241" gradientUnits="userSpaceOnUse">
<stop stop-color="#19E672"/>
<stop offset="0.291667" stop-color="#FF56FF"/>
<stop offset="0.640625" stop-color="#0101C5"/>
<stop offset="1" stop-color="#FFFF00"/>
</linearGradient>
<linearGradient id="paint10_linear_190_1010" x1="134" y1="150.569" x2="134" y2="241" gradientUnits="userSpaceOnUse">
<stop stop-color="#19E672"/>
<stop offset="0.291667" stop-color="#FF56FF"/>
<stop offset="0.640625" stop-color="#0101C5"/>
<stop offset="1" stop-color="#FFFF00"/>
</linearGradient>
<linearGradient id="paint11_linear_190_1010" x1="134" y1="150.569" x2="134" y2="241" gradientUnits="userSpaceOnUse">
<stop stop-color="#19E672"/>
<stop offset="0.291667" stop-color="#FF56FF"/>
<stop offset="0.640625" stop-color="#0101C5"/>
<stop offset="1" stop-color="#FFFF00"/>
</linearGradient>
<linearGradient id="paint12_linear_190_1010" x1="134" y1="150.569" x2="134" y2="241" gradientUnits="userSpaceOnUse">
<stop stop-color="#19E672"/>
<stop offset="0.291667" stop-color="#FF56FF"/>
<stop offset="0.640625" stop-color="#0101C5"/>
<stop offset="1" stop-color="#FFFF00"/>
</linearGradient>
<linearGradient id="paint13_linear_190_1010" x1="134" y1="150.569" x2="134" y2="241" gradientUnits="userSpaceOnUse">
<stop stop-color="#19E672"/>
<stop offset="0.291667" stop-color="#FF56FF"/>
<stop offset="0.640625" stop-color="#0101C5"/>
<stop offset="1" stop-color="#FFFF00"/>
</linearGradient>
<linearGradient id="paint14_linear_190_1010" x1="134" y1="150.569" x2="134" y2="241" gradientUnits="userSpaceOnUse">
<stop stop-color="#19E672"/>
<stop offset="0.291667" stop-color="#FF56FF"/>
<stop offset="0.640625" stop-color="#0101C5"/>
<stop offset="1" stop-color="#FFFF00"/>
</linearGradient>
</defs>
</svg>
