<svg width="93" height="165" viewBox="0 0 93 165" fill="none" xmlns="http://www.w3.org/2000/svg">
<path d="M8.88618 41.2347V36.0804H9.77479V20.6174H8.88618V15.463H2.66585V41.2347H8.88618ZM0 103.087V0H9.77479V5.15434H10.6634V10.3087H11.552V15.463H12.4406V41.2347H11.552V46.3891H10.6634V51.5434H9.77479V56.6978H2.66585V103.087H0Z" fill="url(#paint0_linear_190_1016)"/>
<path d="M24.3259 87.6238V82.4695H26.1031V77.3152H26.9918V72.1608H27.8804V61.8521H28.769V41.2347H27.8804V30.9261H26.9918V25.7717H26.1031V20.6174H24.3259V15.463H21.6601V20.6174H19.8828V25.7717H18.9942V30.9261H18.1056V41.2347H17.217V61.8521H18.1056V72.1608H18.9942V77.3152H19.8828V82.4695H21.6601V87.6238H24.3259ZM20.7714 103.087V97.9325H18.1056V92.7782H17.217V87.6238H16.3284V82.4695H15.4397V72.1608H14.5511V30.9261H15.4397V20.6174H16.3284V15.463H17.217V10.3087H18.1056V5.15434H20.7714V0H25.2145V5.15434H27.8804V10.3087H28.769V15.463H29.6576V20.6174H30.5462V30.9261H31.4349V72.1608H30.5462V82.4695H29.6576V87.6238H28.769V92.7782H27.8804V97.9325H25.2145V103.087H20.7714Z" fill="url(#paint1_linear_190_1016)"/>
<path d="M37.7107 103.087V97.9325H35.9335V92.7782H35.0449V87.6238H34.1562V77.3152H36.8221V82.4695H37.7107V87.6238H42.1538V82.4695H43.0424V67.0065H42.1538V61.8521H41.2652V56.6978H38.5993V51.5434H35.9335V46.3891H35.0449V41.2347H34.1562V15.463H35.0449V10.3087H35.9335V5.15434H36.8221V0H43.0424V5.15434H43.931V10.3087H44.8197V20.6174H42.1538V15.463H37.7107V20.6174H36.8221V36.0804H38.5993V41.2347H41.2652V46.3891H43.0424V51.5434H44.8197V61.8521H45.7083V87.6238H44.8197V92.7782H43.931V97.9325H42.1538V103.087H37.7107Z" fill="url(#paint2_linear_190_1016)"/>
<path d="M53.2338 103.087V15.463H47.0134V0H62.1199V15.463H55.8996V103.087H53.2338Z" fill="url(#paint3_linear_190_1016)"/>
<path d="M63.8694 103.087V0H74.5328V15.463H66.5352V41.2347H74.5328V56.6978H66.5352V87.6238H74.5328V103.087H63.8694Z" fill="url(#paint4_linear_190_1016)"/>
<path d="M86.6402 41.2347V36.0804H87.5288V20.6174H86.6402V15.463H80.4199V41.2347H86.6402ZM77.7541 103.087V0H87.5288V5.15434H88.4175V10.3087H89.3061V15.463H90.1947V41.2347H89.3061V46.3891H88.4175V51.5434H87.5288V56.6978H84.863V61.8521H85.7516V67.0065H86.6402V72.1608H87.5288V77.3152H88.4175V82.4695H89.3061V87.6238H90.1947V92.7782H91.0833V97.9325H91.9719V103.087H88.4175V97.9325H87.5288V92.7782H86.6402V87.6238H85.7516V82.4695H84.863V77.3152H83.9744V72.1608H83.0858V67.0065H82.1971V61.8521H81.3085V56.6978H80.4199V103.087H77.7541Z" fill="url(#paint5_linear_190_1016)"/>
<path d="M4.05292 165V161.904H2.31595V158.809H1.73697V155.713H1.15798V152.617H0.578988V146.426H0V121.661H0.578988V115.47H1.15798V112.374H1.73697V109.278H2.31595V106.183H4.05292V103.087H6.94786V106.183H8.68482V109.278H9.26381V115.47H9.8428V118.565H10.4218V121.661H8.10584V118.565H7.52685V115.47H6.36887V112.374H4.63191V115.47H3.47393V118.565H2.89494V121.661H2.31595V127.852H1.73697V140.235H2.31595V146.426H2.89494V149.522H3.47393V152.617H4.63191V155.713H6.36887V152.617H7.52685V149.522H8.10584V146.426H8.68482V140.235H5.2109V130.948H10.4218V149.522H9.8428V152.617H9.26381V158.809H8.68482V161.904H6.94786V165H4.05292Z" fill="url(#paint6_linear_190_1016)"/>
<path d="M12.3035 165V103.087H19.2514V112.374H14.0405V127.852H19.2514V137.139H14.0405V155.713H19.2514V165H12.3035Z" fill="url(#paint7_linear_190_1016)"/>
<path d="M21.3502 165V103.087H24.2451V109.278H24.8241V115.47H25.4031V121.661H25.9821V127.852H26.5611V134.043H27.1401V140.235H27.7191V146.426H28.2981V152.617H28.877V103.087H30.614V165H27.7191V158.809H27.1401V152.617H26.5611V146.426H25.9821V140.235H25.4031V134.043H24.8241V127.852H24.2451V121.661H23.6661V115.47H23.0872V165H21.3502Z" fill="url(#paint8_linear_190_1016)"/>
<path d="M32.7128 165V103.087H39.6607V112.374H34.4498V127.852H39.6607V137.139H34.4498V155.713H39.6607V165H32.7128Z" fill="url(#paint9_linear_190_1016)"/>
<path d="M47.5494 127.852V124.757H48.1284V115.47H47.5494V112.374H43.4965V127.852H47.5494ZM41.7595 165V103.087H48.1284V106.183H48.7074V109.278H49.2864V112.374H49.8654V127.852H49.2864V130.948H48.7074V134.043H48.1284V137.139H46.3914V140.235H46.9704V143.33H47.5494V146.426H48.1284V149.522H48.7074V152.617H49.2864V155.713H49.8654V158.809H50.4444V161.904H51.0233V165H48.7074V161.904H48.1284V158.809H47.5494V155.713H46.9704V152.617H46.3914V149.522H45.8125V146.426H45.2335V143.33H44.6545V140.235H44.0755V137.139H43.4965V165H41.7595Z" fill="url(#paint10_linear_190_1016)"/>
<path d="M59.7444 137.139V134.043H59.1654V127.852H58.5864V121.661H58.0074V115.47H57.4284V121.661H56.8494V127.852H56.2704V134.043H55.6914V137.139H59.7444ZM52.2175 165V155.713H52.7965V149.522H53.3755V140.235H53.9545V134.043H54.5335V127.852H55.1125V121.661H55.6914V115.47H56.2704V109.278H56.8494V103.087H58.5864V109.278H59.1654V115.47H59.7444V121.661H60.3233V127.852H60.9023V134.043H61.4813V140.235H62.0603V149.522H62.6393V155.713H63.2183V165H61.4813V158.809H60.9023V152.617H60.3233V146.426H55.1125V152.617H54.5335V158.809H53.9545V165H52.2175Z" fill="url(#paint11_linear_190_1016)"/>
<path d="M65.1724 165V112.374H61.1195V103.087H70.9623V112.374H66.9093V165H65.1724Z" fill="url(#paint12_linear_190_1016)"/>
<path d="M77.494 155.713V152.617H78.6519V149.522H79.2309V146.426H79.8099V140.235H80.3889V127.852H79.8099V121.661H79.2309V118.565H78.6519V115.47H77.494V112.374H75.757V115.47H74.599V118.565H74.02V121.661H73.4411V127.852H72.8621V140.235H73.4411V146.426H74.02V149.522H74.599V152.617H75.757V155.713H77.494ZM75.178 165V161.904H73.4411V158.809H72.8621V155.713H72.2831V152.617H71.7041V146.426H71.1251V121.661H71.7041V115.47H72.2831V112.374H72.8621V109.278H73.4411V106.183H75.178V103.087H78.073V106.183H79.8099V109.278H80.3889V112.374H80.9679V115.47H81.5469V121.661H82.1259V146.426H81.5469V152.617H80.9679V155.713H80.3889V158.809H79.8099V161.904H78.073V165H75.178Z" fill="url(#paint13_linear_190_1016)"/>
<path d="M89.5261 127.852V124.757H90.1051V115.47H89.5261V112.374H85.4732V127.852H89.5261ZM83.7362 165V103.087H90.1051V106.183H90.6841V109.278H91.263V112.374H91.842V127.852H91.263V130.948H90.6841V134.043H90.1051V137.139H88.3681V140.235H88.9471V143.33H89.5261V146.426H90.1051V149.522H90.6841V152.617H91.263V155.713H91.842V158.809H92.421V161.904H93V165H90.6841V161.904H90.1051V158.809H89.5261V155.713H88.9471V152.617H88.3681V149.522H87.7891V146.426H87.2101V143.33H86.6311V140.235H86.0521V137.139H85.4732V165H83.7362Z" fill="url(#paint14_linear_190_1016)"/>
<defs>
<linearGradient id="paint0_linear_190_1016" x1="45.986" y1="0" x2="45.986" y2="103.087" gradientUnits="userSpaceOnUse">
<stop stop-color="#19E672"/>
<stop offset="0.291667" stop-color="#FF56FF"/>
<stop offset="0.640625" stop-color="#0101C5"/>
<stop offset="1" stop-color="#FFFF00"/>
</linearGradient>
<linearGradient id="paint1_linear_190_1016" x1="45.986" y1="0" x2="45.986" y2="103.087" gradientUnits="userSpaceOnUse">
<stop stop-color="#19E672"/>
<stop offset="0.291667" stop-color="#FF56FF"/>
<stop offset="0.640625" stop-color="#0101C5"/>
<stop offset="1" stop-color="#FFFF00"/>
</linearGradient>
<linearGradient id="paint2_linear_190_1016" x1="45.986" y1="0" x2="45.986" y2="103.087" gradientUnits="userSpaceOnUse">
<stop stop-color="#19E672"/>
<stop offset="0.291667" stop-color="#FF56FF"/>
<stop offset="0.640625" stop-color="#0101C5"/>
<stop offset="1" stop-color="#FFFF00"/>
</linearGradient>
<linearGradient id="paint3_linear_190_1016" x1="45.986" y1="0" x2="45.986" y2="103.087" gradientUnits="userSpaceOnUse">
<stop stop-color="#19E672"/>
<stop offset="0.291667" stop-color="#FF56FF"/>
<stop offset="0.640625" stop-color="#0101C5"/>
<stop offset="1" stop-color="#FFFF00"/>
</linearGradient>
<linearGradient id="paint4_linear_190_1016" x1="45.986" y1="0" x2="45.986" y2="103.087" gradientUnits="userSpaceOnUse">
<stop stop-color="#19E672"/>
<stop offset="0.291667" stop-color="#FF56FF"/>
<stop offset="0.640625" stop-color="#0101C5"/>
<stop offset="1" stop-color="#FFFF00"/>
</linearGradient>
<linearGradient id="paint5_linear_190_1016" x1="45.986" y1="0" x2="45.986" y2="103.087" gradientUnits="userSpaceOnUse">
<stop stop-color="#19E672"/>
<stop offset="0.291667" stop-color="#FF56FF"/>
<stop offset="0.640625" stop-color="#0101C5"/>
<stop offset="1" stop-color="#FFFF00"/>
</linearGradient>
<linearGradient id="paint6_linear_190_1016" x1="46.5" y1="103.087" x2="46.5" y2="165" gradientUnits="userSpaceOnUse">
<stop stop-color="#19E672"/>
<stop offset="0.291667" stop-color="#FF56FF"/>
<stop offset="0.640625" stop-color="#0101C5"/>
<stop offset="1" stop-color="#FFFF00"/>
</linearGradient>
<linearGradient id="paint7_linear_190_1016" x1="46.5" y1="103.087" x2="46.5" y2="165" gradientUnits="userSpaceOnUse">
<stop stop-color="#19E672"/>
<stop offset="0.291667" stop-color="#FF56FF"/>
<stop offset="0.640625" stop-color="#0101C5"/>
<stop offset="1" stop-color="#FFFF00"/>
</linearGradient>
<linearGradient id="paint8_linear_190_1016" x1="46.5" y1="103.087" x2="46.5" y2="165" gradientUnits="userSpaceOnUse">
<stop stop-color="#19E672"/>
<stop offset="0.291667" stop-color="#FF56FF"/>
<stop offset="0.640625" stop-color="#0101C5"/>
<stop offset="1" stop-color="#FFFF00"/>
</linearGradient>
<linearGradient id="paint9_linear_190_1016" x1="46.5" y1="103.087" x2="46.5" y2="165" gradientUnits="userSpaceOnUse">
<stop stop-color="#19E672"/>
<stop offset="0.291667" stop-color="#FF56FF"/>
<stop offset="0.640625" stop-color="#0101C5"/>
<stop offset="1" stop-color="#FFFF00"/>
</linearGradient>
<linearGradient id="paint10_linear_190_1016" x1="46.5" y1="103.087" x2="46.5" y2="165" gradientUnits="userSpaceOnUse">
<stop stop-color="#19E672"/>
<stop offset="0.291667" stop-color="#FF56FF"/>
<stop offset="0.640625" stop-color="#0101C5"/>
<stop offset="1" stop-color="#FFFF00"/>
</linearGradient>
<linearGradient id="paint11_linear_190_1016" x1="46.5" y1="103.087" x2="46.5" y2="165" gradientUnits="userSpaceOnUse">
<stop stop-color="#19E672"/>
<stop offset="0.291667" stop-color="#FF56FF"/>
<stop offset="0.640625" stop-color="#0101C5"/>
<stop offset="1" stop-color="#FFFF00"/>
</linearGradient>
<linearGradient id="paint12_linear_190_1016" x1="46.5" y1="103.087" x2="46.5" y2="165" gradientUnits="userSpaceOnUse">
<stop stop-color="#19E672"/>
<stop offset="0.291667" stop-color="#FF56FF"/>
<stop offset="0.640625" stop-color="#0101C5"/>
<stop offset="1" stop-color="#FFFF00"/>
</linearGradient>
<linearGradient id="paint13_linear_190_1016" x1="46.5" y1="103.087" x2="46.5" y2="165" gradientUnits="userSpaceOnUse">
<stop stop-color="#19E672"/>
<stop offset="0.291667" stop-color="#FF56FF"/>
<stop offset="0.640625" stop-color="#0101C5"/>
<stop offset="1" stop-color="#FFFF00"/>
</linearGradient>
<linearGradient id="paint14_linear_190_1016" x1="46.5" y1="103.087" x2="46.5" y2="165" gradientUnits="userSpaceOnUse">
<stop stop-color="#19E672"/>
<stop offset="0.291667" stop-color="#FF56FF"/>
<stop offset="0.640625" stop-color="#0101C5"/>
<stop offset="1" stop-color="#FFFF00"/>
</linearGradient>
</defs>
</svg>
