<svg width="769" height="449" viewBox="0 0 769 449" fill="none" xmlns="http://www.w3.org/2000/svg">
<g clip-path="url(#clip0_449_25490)">
<path d="M74.6248 112.208V98.1824H82.0873V56.1042H74.6248V42.0782H22.3874V112.208H74.6248ZM0 280.521V0H82.0873V14.0261H89.5497V28.0521H97.0122V42.0782H104.475V112.208H97.0122V126.235H89.5497V140.261H82.0873V154.287H22.3874V280.521H0Z" fill="url(#paint0_linear_449_25490)"/>
<path d="M204.285 238.443V224.417H219.21V210.391H226.673V196.365H234.135V168.313H241.598V112.208H234.135V84.1564H226.673V70.1303H219.21V56.1042H204.285V42.0782H181.898V56.1042H166.973V70.1303H159.51V84.1564H152.048V112.208H144.586V168.313H152.048V196.365H159.51V210.391H166.973V224.417H181.898V238.443H204.285ZM174.435 280.521V266.495H152.048V252.469H144.586V238.443H137.123V224.417H129.661V196.365H122.198V84.1564H129.661V56.1042H137.123V42.0782H144.586V28.0521H152.048V14.0261H174.435V0H211.748V14.0261H234.135V28.0521H241.598V42.0782H249.06V56.1042H256.523V84.1564H263.985V196.365H256.523V224.417H249.06V238.443H241.598V252.469H234.135V266.495H211.748V280.521H174.435Z" fill="url(#paint1_linear_449_25490)"/>
<path d="M316.689 280.521V266.495H301.764V252.469H294.301V238.443H286.839V210.391H309.226V224.417H316.689V238.443H354.001V224.417H361.464V182.339H354.001V168.313H346.539V154.287H324.151V140.261H301.764V126.235H294.301V112.208H286.839V42.0782H294.301V28.0521H301.764V14.0261H309.226V0H361.464V14.0261H368.926V28.0521H376.389V56.1042H354.001V42.0782H316.689V56.1042H309.226V98.1824H324.151V112.208H346.539V126.235H361.464V140.261H376.389V168.313H383.851V238.443H376.389V252.469H368.926V266.495H354.001V280.521H316.689Z" fill="url(#paint2_linear_449_25490)"/>
<path d="M447.049 280.521V42.0782H394.812V0H521.674V42.0782H469.437V280.521H447.049Z" fill="url(#paint3_linear_449_25490)"/>
<path d="M536.366 280.521V0H625.915V42.0782H558.753V112.208H625.915V154.287H558.753V238.443H625.915V280.521H536.366Z" fill="url(#paint4_linear_449_25490)"/>
<path d="M727.592 112.208V98.1824H735.054V56.1042H727.592V42.0782H675.354V112.208H727.592ZM652.967 280.521V0H735.054V14.0261H742.517V28.0521H749.979V42.0782H757.442V112.208H749.979V126.235H742.517V140.261H735.054V154.287H712.667V168.313H720.129V182.339H727.592V196.365H735.054V210.391H742.517V224.417H749.979V238.443H757.442V252.469H764.904V266.495H772.367V280.521H742.517V266.495H735.054V252.469H727.592V238.443H720.129V224.417H712.667V210.391H705.204V196.365H697.742V182.339H690.279V168.313H682.817V154.287H675.354V280.521H652.967Z" fill="url(#paint5_linear_449_25490)"/>
<path d="M34.0358 449V440.576H19.449V432.152H14.5868V423.728H9.72451V415.304H4.86226V398.457H0V331.065H4.86226V314.217H9.72451V305.793H14.5868V297.369H19.449V288.945H34.0358V280.521H58.3471V288.945H72.9339V297.369H77.7961V314.217H82.6584V322.641H87.5206V331.065H68.0716V322.641H63.2093V314.217H53.4848V305.793H38.8981V314.217H29.1735V322.641H24.3113V331.065H19.449V347.913H14.5868V381.609H19.449V398.457H24.3113V406.881H29.1735V415.304H38.8981V423.728H53.4848V415.304H63.2093V406.881H68.0716V398.457H72.9339V381.609H43.7603V356.337H87.5206V406.881H82.6584V415.304H77.7961V432.152H72.9339V440.576H58.3471V449H34.0358Z" fill="url(#paint6_linear_449_25490)"/>
<path d="M103.323 449V280.521H161.67V305.793H117.91V347.913H161.67V373.185H117.91V423.728H161.67V449H103.323Z" fill="url(#paint7_linear_449_25490)"/>
<path d="M179.296 449V280.521H203.607V297.369H208.469V314.217H213.332V331.065H218.194V347.913H223.056V364.761H227.918V381.609H232.781V398.457H237.643V415.304H242.505V280.521H257.092V449H232.781V432.152H227.918V415.304H223.056V398.457H218.194V381.609H213.332V364.761H208.469V347.913H203.607V331.065H198.745V314.217H193.882V449H179.296Z" fill="url(#paint8_linear_449_25490)"/>
<path d="M274.718 449V280.521H333.065V305.793H289.304V347.913H333.065V373.185H289.304V423.728H333.065V449H274.718Z" fill="url(#paint9_linear_449_25490)"/>
<path d="M399.313 347.913V339.489H404.175V314.217H399.313V305.793H365.277V347.913H399.313ZM350.69 449V280.521H404.175V288.945H409.037V297.369H413.9V305.793H418.762V347.913H413.9V356.337H409.037V364.761H404.175V373.185H389.588V381.609H394.451V390.033H399.313V398.457H404.175V406.881H409.037V415.304H413.9V423.728H418.762V432.152H423.624V440.576H428.486V449H409.037V440.576H404.175V432.152H399.313V423.728H394.451V415.304H389.588V406.881H384.726V398.457H379.864V390.033H375.002V381.609H370.139V373.185H365.277V449H350.69Z" fill="url(#paint10_linear_449_25490)"/>
<path d="M501.724 373.185V364.761H496.862V347.913H492V331.065H487.137V314.217H482.275V331.065H477.413V347.913H472.551V364.761H467.688V373.185H501.724ZM438.515 449V423.728H443.377V406.881H448.239V381.609H453.102V364.761H457.964V347.913H462.826V331.065H467.688V314.217H472.551V297.369H477.413V280.521H492V297.369H496.862V314.217H501.724V331.065H506.586V347.913H511.449V364.761H516.311V381.609H521.173V406.881H526.035V423.728H530.898V449H516.311V432.152H511.449V415.304H506.586V398.457H462.826V415.304H457.964V432.152H453.102V449H438.515Z" fill="url(#paint11_linear_449_25490)"/>
<path d="M547.308 449V305.793H513.272V280.521H595.93V305.793H561.895V449H547.308Z" fill="url(#paint12_linear_449_25490)"/>
<path d="M650.783 423.728V415.304H660.507V406.881H665.369V398.457H670.232V381.609H675.094V347.913H670.232V331.065H665.369V322.641H660.507V314.217H650.783V305.793H636.196V314.217H626.471V322.641H621.609V331.065H616.747V347.913H611.885V381.609H616.747V398.457H621.609V406.881H626.471V415.304H636.196V423.728H650.783ZM631.334 449V440.576H616.747V432.152H611.885V423.728H607.022V415.304H602.16V398.457H597.298V331.065H602.16V314.217H607.022V305.793H611.885V297.369H616.747V288.945H631.334V280.521H655.645V288.945H670.232V297.369H675.094V305.793H679.956V314.217H684.819V331.065H689.681V398.457H684.819V415.304H679.956V423.728H675.094V432.152H670.232V440.576H655.645V449H631.334Z" fill="url(#paint13_linear_449_25490)"/>
<path d="M751.826 347.913V339.489H756.689V314.217H751.826V305.793H717.791V347.913H751.826ZM703.204 449V280.521H756.689V288.945H761.551V297.369H766.413V305.793H771.276V347.913H766.413V356.337H761.551V364.761H756.689V373.185H742.102V381.609H746.964V390.033H751.826V398.457H756.689V406.881H761.551V415.304H766.413V423.728H771.276V432.152H776.138V440.576H781V449H761.551V440.576H756.689V432.152H751.826V423.728H746.964V415.304H742.102V406.881H737.24V398.457H732.377V390.033H727.515V381.609H722.653V373.185H717.791V449H703.204Z" fill="url(#paint14_linear_449_25490)"/>
</g>
<defs>
<linearGradient id="paint0_linear_449_25490" x1="386.183" y1="0" x2="386.183" y2="280.521" gradientUnits="userSpaceOnUse">
<stop stop-color="#19E672"/>
<stop offset="0.291667" stop-color="#FF56FF"/>
<stop offset="0.640625" stop-color="#0101C5"/>
<stop offset="1" stop-color="#FFFF00"/>
</linearGradient>
<linearGradient id="paint1_linear_449_25490" x1="386.183" y1="0" x2="386.183" y2="280.521" gradientUnits="userSpaceOnUse">
<stop stop-color="#19E672"/>
<stop offset="0.291667" stop-color="#FF56FF"/>
<stop offset="0.640625" stop-color="#0101C5"/>
<stop offset="1" stop-color="#FFFF00"/>
</linearGradient>
<linearGradient id="paint2_linear_449_25490" x1="386.183" y1="0" x2="386.183" y2="280.521" gradientUnits="userSpaceOnUse">
<stop stop-color="#19E672"/>
<stop offset="0.291667" stop-color="#FF56FF"/>
<stop offset="0.640625" stop-color="#0101C5"/>
<stop offset="1" stop-color="#FFFF00"/>
</linearGradient>
<linearGradient id="paint3_linear_449_25490" x1="386.183" y1="0" x2="386.183" y2="280.521" gradientUnits="userSpaceOnUse">
<stop stop-color="#19E672"/>
<stop offset="0.291667" stop-color="#FF56FF"/>
<stop offset="0.640625" stop-color="#0101C5"/>
<stop offset="1" stop-color="#FFFF00"/>
</linearGradient>
<linearGradient id="paint4_linear_449_25490" x1="386.183" y1="0" x2="386.183" y2="280.521" gradientUnits="userSpaceOnUse">
<stop stop-color="#19E672"/>
<stop offset="0.291667" stop-color="#FF56FF"/>
<stop offset="0.640625" stop-color="#0101C5"/>
<stop offset="1" stop-color="#FFFF00"/>
</linearGradient>
<linearGradient id="paint5_linear_449_25490" x1="386.183" y1="0" x2="386.183" y2="280.521" gradientUnits="userSpaceOnUse">
<stop stop-color="#19E672"/>
<stop offset="0.291667" stop-color="#FF56FF"/>
<stop offset="0.640625" stop-color="#0101C5"/>
<stop offset="1" stop-color="#FFFF00"/>
</linearGradient>
<linearGradient id="paint6_linear_449_25490" x1="390.5" y1="280.521" x2="390.5" y2="449" gradientUnits="userSpaceOnUse">
<stop stop-color="#19E672"/>
<stop offset="0.291667" stop-color="#FF56FF"/>
<stop offset="0.640625" stop-color="#0101C5"/>
<stop offset="1" stop-color="#FFFF00"/>
</linearGradient>
<linearGradient id="paint7_linear_449_25490" x1="390.5" y1="280.521" x2="390.5" y2="449" gradientUnits="userSpaceOnUse">
<stop stop-color="#19E672"/>
<stop offset="0.291667" stop-color="#FF56FF"/>
<stop offset="0.640625" stop-color="#0101C5"/>
<stop offset="1" stop-color="#FFFF00"/>
</linearGradient>
<linearGradient id="paint8_linear_449_25490" x1="390.5" y1="280.521" x2="390.5" y2="449" gradientUnits="userSpaceOnUse">
<stop stop-color="#19E672"/>
<stop offset="0.291667" stop-color="#FF56FF"/>
<stop offset="0.640625" stop-color="#0101C5"/>
<stop offset="1" stop-color="#FFFF00"/>
</linearGradient>
<linearGradient id="paint9_linear_449_25490" x1="390.5" y1="280.521" x2="390.5" y2="449" gradientUnits="userSpaceOnUse">
<stop stop-color="#19E672"/>
<stop offset="0.291667" stop-color="#FF56FF"/>
<stop offset="0.640625" stop-color="#0101C5"/>
<stop offset="1" stop-color="#FFFF00"/>
</linearGradient>
<linearGradient id="paint10_linear_449_25490" x1="390.5" y1="280.521" x2="390.5" y2="449" gradientUnits="userSpaceOnUse">
<stop stop-color="#19E672"/>
<stop offset="0.291667" stop-color="#FF56FF"/>
<stop offset="0.640625" stop-color="#0101C5"/>
<stop offset="1" stop-color="#FFFF00"/>
</linearGradient>
<linearGradient id="paint11_linear_449_25490" x1="390.5" y1="280.521" x2="390.5" y2="449" gradientUnits="userSpaceOnUse">
<stop stop-color="#19E672"/>
<stop offset="0.291667" stop-color="#FF56FF"/>
<stop offset="0.640625" stop-color="#0101C5"/>
<stop offset="1" stop-color="#FFFF00"/>
</linearGradient>
<linearGradient id="paint12_linear_449_25490" x1="390.5" y1="280.521" x2="390.5" y2="449" gradientUnits="userSpaceOnUse">
<stop stop-color="#19E672"/>
<stop offset="0.291667" stop-color="#FF56FF"/>
<stop offset="0.640625" stop-color="#0101C5"/>
<stop offset="1" stop-color="#FFFF00"/>
</linearGradient>
<linearGradient id="paint13_linear_449_25490" x1="390.5" y1="280.521" x2="390.5" y2="449" gradientUnits="userSpaceOnUse">
<stop stop-color="#19E672"/>
<stop offset="0.291667" stop-color="#FF56FF"/>
<stop offset="0.640625" stop-color="#0101C5"/>
<stop offset="1" stop-color="#FFFF00"/>
</linearGradient>
<linearGradient id="paint14_linear_449_25490" x1="390.5" y1="280.521" x2="390.5" y2="449" gradientUnits="userSpaceOnUse">
<stop stop-color="#19E672"/>
<stop offset="0.291667" stop-color="#FF56FF"/>
<stop offset="0.640625" stop-color="#0101C5"/>
<stop offset="1" stop-color="#FFFF00"/>
</linearGradient>
<clipPath id="clip0_449_25490">
<rect width="769" height="449" fill="white"/>
</clipPath>
</defs>
</svg>
