<svg width="565" height="995" viewBox="0 0 565 995" fill="none" xmlns="http://www.w3.org/2000/svg">
<rect width="565" height="995" fill="url(#paint0_linear_190_1035)"/>
<path d="M45.5875 826.215V812.149H50.1462V769.953H45.5875V755.887H13.6762V826.215H45.5875ZM0 995V713.691H50.1462V727.757H54.705V741.822H59.2637V755.887H63.8225V826.215H59.2637V840.28H54.705V854.346H50.1462V868.411H13.6762V995H0Z" fill="black"/>
<path d="M122.089 826.215V812.149H126.648V769.953H122.089V755.887H90.1778V826.215H122.089ZM76.5015 995V713.691H126.648V727.757H131.207V741.822H135.765V755.887H140.324V826.215H135.765V840.28H131.207V854.346H126.648V868.411H112.972V882.476H117.53V896.542H122.089V910.607H126.648V924.673H131.207V938.738H135.765V952.804H140.324V966.869H144.883V980.935H149.441V995H131.207V980.935H126.648V966.869H122.089V952.804H117.53V938.738H112.972V924.673H108.413V910.607H103.854V896.542H99.2953V882.476H94.7365V868.411H90.1778V995H76.5015Z" fill="black"/>
<path d="M162.405 995V713.691H217.11V755.887H176.082V826.215H217.11V868.411H176.082V952.804H217.11V995H162.405Z" fill="black"/>
<path d="M270.106 952.804V938.738H279.223V924.673H283.782V910.607H288.341V882.476H292.9V826.215H288.341V798.084H283.782V784.018H279.223V769.953H270.106V755.887H247.312V952.804H270.106ZM233.636 995V713.691H274.665V727.757H288.341V741.822H292.9V755.887H297.458V769.953H302.017V798.084H306.576V910.607H302.017V938.738H297.458V952.804H292.9V966.869H288.341V980.935H274.665V995H233.636Z" fill="black"/>
<path d="M321.249 995V713.691H344.043V755.887H348.602V784.018H353.161V826.215H357.719V868.411H362.278V924.673H366.837V868.411H371.396V826.215H375.954V784.018H380.513V755.887H385.072V713.691H407.866V995H394.189V784.018H389.631V812.149H385.072V868.411H380.513V924.673H375.954V966.869H371.396V995H357.719V966.869H353.161V924.673H348.602V868.411H344.043V812.149H339.484V784.018H334.926V995H321.249Z" fill="black"/>
<path d="M424.391 995V713.691H479.096V755.887H438.067V826.215H479.096V868.411H438.067V952.804H479.096V995H424.391Z" fill="black"/>
<path d="M519.412 995V755.887H487.501V713.691H565V755.887H533.089V995H519.412Z" fill="black"/>
<path d="M26.9348 28.3393V26.6723H33.6685V25.0052H37.0354V23.3382H40.4022V20.0042H43.7691V13.3361H40.4022V10.0021H37.0354V8.33508H33.6685V6.66806H26.9348V5.00105H10.1006V28.3393H26.9348ZM0 33.3403V0H30.3017V1.66702H40.4022V3.33403H43.7691V5.00105H47.1359V6.66806H50.5028V10.0021H53.8696V23.3382H50.5028V26.6723H47.1359V28.3393H43.7691V30.0063H40.4022V31.6733H30.3017V33.3403H0Z" fill="black"/>
<path d="M98.3752 13.3361V11.6691H101.742V6.66806H98.3752V5.00105H74.8073V13.3361H98.3752ZM64.7067 33.3403V0H101.742V1.66702H105.109V3.33403H108.476V5.00105H111.843V13.3361H108.476V15.0031H105.109V16.6702H101.742V18.3372H91.6415V20.0042H95.0084V21.6712H98.3752V23.3382H101.742V25.0052H105.109V26.6723H108.476V28.3393H111.843V30.0063H115.21V31.6733H118.576V33.3403H105.109V31.6733H101.742V30.0063H98.3752V28.3393H95.0084V26.6723H91.6415V25.0052H88.2747V23.3382H84.9078V21.6712H81.541V20.0042H78.1741V18.3372H74.8073V33.3403H64.7067Z" fill="black"/>
<path d="M169.29 18.3372V16.6702H165.923V13.3361H162.556V10.0021H159.189V6.66806H155.822V10.0021H152.455V13.3361H149.088V16.6702H145.722V18.3372H169.29ZM125.52 33.3403V28.3393H128.887V25.0052H132.254V20.0042H135.621V16.6702H138.988V13.3361H142.355V10.0021H145.722V6.66806H149.088V3.33403H152.455V0H162.556V3.33403H165.923V6.66806H169.29V10.0021H172.656V13.3361H176.023V16.6702H179.39V20.0042H182.757V25.0052H186.124V28.3393H189.491V33.3403H179.39V30.0063H176.023V26.6723H172.656V23.3382H142.355V26.6723H138.988V30.0063H135.621V33.3403H125.52Z" fill="black"/>
<path d="M215.479 33.3403V31.6733H205.378V30.0063H202.011V28.3393H198.644V26.6723H195.277V23.3382H191.911V10.0021H195.277V6.66806H198.644V5.00105H202.011V3.33403H205.378V1.66702H215.479V0H232.313V1.66702H242.413V3.33403H245.78V6.66806H249.147V8.33508H252.514V10.0021H239.047V8.33508H235.68V6.66806H228.946V5.00105H218.845V6.66806H212.112V8.33508H208.745V10.0021H205.378V13.3361H202.011V20.0042H205.378V23.3382H208.745V25.0052H212.112V26.6723H218.845V28.3393H228.946V26.6723H235.68V25.0052H239.047V23.3382H242.413V20.0042H222.212V15.0031H252.514V25.0052H249.147V26.6723H245.78V30.0063H242.413V31.6733H232.313V33.3403H215.479Z" fill="black"/>
<path d="M275.661 33.3403V31.6733H268.927V30.0063H265.561V26.6723H262.194V20.0042H265.561V16.6702H268.927V15.0031H272.294V13.3361H268.927V11.6691H265.561V6.66806H268.927V3.33403H272.294V1.66702H279.028V0H292.495V1.66702H299.229V3.33403H302.596V5.00105H305.963V10.0021H302.596V11.6691H292.495V10.0021H295.862V6.66806H292.495V5.00105H279.028V6.66806H275.661V11.6691H279.028V13.3361H285.762V16.6702H279.028V18.3372H275.661V20.0042H272.294V26.6723H275.661V28.3393H295.862V26.6723H299.229V21.6712H295.862V18.3372H316.063V21.6712H309.33V28.3393H305.963V30.0063H302.596V31.6733H299.229V33.3403H275.661Z" fill="black"/>
<path d="M352.047 28.3393V26.6723H358.78V25.0052H362.147V23.3382H365.514V20.0042H368.881V13.3361H365.514V10.0021H362.147V8.33508H358.78V6.66806H352.047V5.00105H335.212V28.3393H352.047ZM325.112 33.3403V0H355.413V1.66702H365.514V3.33403H368.881V5.00105H372.248V6.66806H375.615V10.0021H378.981V23.3382H375.615V26.6723H372.248V28.3393H368.881V30.0063H365.514V31.6733H355.413V33.3403H325.112Z" fill="black"/>
<path d="M423.487 13.3361V11.6691H426.854V6.66806H423.487V5.00105H399.919V13.3361H423.487ZM389.818 33.3403V0H426.854V1.66702H430.221V3.33403H433.588V5.00105H436.954V13.3361H433.588V15.0031H430.221V16.6702H426.854V18.3372H416.753V20.0042H420.12V21.6712H423.487V23.3382H426.854V25.0052H430.221V26.6723H433.588V28.3393H436.954V30.0063H440.321V31.6733H443.688V33.3403H430.221V31.6733H426.854V30.0063H423.487V28.3393H420.12V26.6723H416.753V25.0052H413.386V23.3382H410.02V21.6712H406.653V20.0042H403.286V18.3372H399.919V33.3403H389.818Z" fill="black"/>
<path d="M481.565 28.3393V26.6723H488.299V25.0052H491.666V23.3382H495.033V20.0042H498.399V13.3361H495.033V10.0021H491.666V8.33508H488.299V6.66806H481.565V5.00105H471.465V6.66806H464.731V8.33508H461.364V10.0021H457.997V13.3361H454.63V20.0042H457.997V23.3382H461.364V25.0052H464.731V26.6723H471.465V28.3393H481.565ZM468.098 33.3403V31.6733H457.997V30.0063H454.63V28.3393H451.264V26.6723H447.897V23.3382H444.53V10.0021H447.897V6.66806H451.264V5.00105H454.63V3.33403H457.997V1.66702H468.098V0H484.932V1.66702H495.033V3.33403H498.399V5.00105H501.766V6.66806H505.133V10.0021H508.5V23.3382H505.133V26.6723H501.766V28.3393H498.399V30.0063H495.033V31.6733H484.932V33.3403H468.098Z" fill="black"/>
<path d="M551.533 13.3361V11.6691H554.899V6.66806H551.533V5.00105H527.965V13.3361H551.533ZM517.864 33.3403V0H554.899V1.66702H558.266V3.33403H561.633V5.00105H565V13.3361H561.633V15.0031H558.266V16.6702H554.899V18.3372H527.965V33.3403H517.864Z" fill="black"/>
<defs>
<linearGradient id="paint0_linear_190_1035" x1="282.5" y1="0" x2="282.5" y2="995" gradientUnits="userSpaceOnUse">
<stop stop-color="#EE99C0"/>
<stop offset="1" stop-color="#00E2D3"/>
</linearGradient>
</defs>
</svg>
