<svg width="339" height="403" viewBox="0 0 339 403" fill="none" xmlns="http://www.w3.org/2000/svg">
<path d="M4.85676 272.509V287.405C7.92229 297.92 8.36023 313.254 10.9878 324.207C11.8637 329.465 12.7396 335.16 13.1775 340.856C18.4327 357.942 23.6879 371.086 37.2638 379.848C41.2052 382.039 49.088 386.858 53.0294 385.106C63.5398 385.982 60.0364 397.811 67.0433 401.754C72.7365 404.821 78.8675 401.316 84.5607 400.878C90.2538 394.306 104.706 375.467 106.895 372.4C108.209 370.209 114.34 360.571 116.092 358.818V354.437C111.713 357.066 110.399 361.009 106.895 364.076C97.2607 371.086 87.1883 380.724 70.9847 380.724C71.8606 372.4 76.6778 368.895 79.3055 362.762C89.3779 340.856 102.954 322.893 112.15 300.987H116.092C116.092 328.588 127.916 359.695 140.616 375.467C142.368 377.658 154.192 384.229 157.258 385.982C166.892 391.677 192.292 397.373 203.679 390.363C204.554 389.487 214.189 381.601 215.065 380.724V378.534C219.882 373.714 226.013 367.143 226.451 357.504C255.355 357.942 279.441 341.294 291.703 325.083C293.017 323.331 295.207 323.331 296.958 322.017C301.776 318.073 303.965 312.378 307.469 307.121C308.783 306.682 309.658 305.806 310.534 304.93V300.987C314.476 291.348 320.169 281.272 323.234 270.319C324.986 265.061 322.796 258.489 325.424 254.546V236.584H323.234C320.607 244.032 317.541 251.48 314.914 258.928C313.162 261.994 310.096 263.309 308.783 267.252C306.593 267.69 307.469 267.252 306.593 268.128C294.769 268.566 296.083 265.061 290.827 259.804C290.389 237.898 305.279 212.925 324.548 211.611C324.548 205.915 339 153.341 339 143.703C329.365 146.331 310.534 156.846 303.527 162.104C277.689 180.943 244.844 226.069 256.231 273.385V286.091C257.982 293.977 259.296 299.234 262.362 304.93C258.42 306.244 251.851 306.244 246.596 306.244C244.844 276.014 247.91 247.975 241.341 223.002C239.151 214.24 242.217 208.106 236.962 201.096C238.275 194.524 251.851 188.829 256.231 184.009C257.106 183.133 256.669 183.133 257.106 180.943C266.303 179.628 262.8 172.618 267.617 167.361C269.369 165.609 272.434 165.17 273.748 162.98C275.5 160.789 275.062 158.599 277.251 156.846C278.565 155.97 280.317 155.97 281.193 154.656C286.01 146.331 290.827 121.797 285.572 110.406C283.382 106.025 279.441 102.958 278.127 96.824H277.251C275.938 98.5765 258.42 134.94 257.106 138.007C253.165 137.569 251.413 137.131 249.662 134.94C246.596 130.121 236.086 106.025 233.896 99.0146C211.561 100.767 196.234 112.158 181.344 120.921V122.235C180.03 122.673 180.906 121.797 180.468 120.921H178.278C178.278 99.8908 180.468 84.9948 184.847 67.4701C185.285 66.1558 186.599 57.3934 187.913 53.8885C189.665 47.3167 191.416 39.4306 193.168 32.8588V22.344C194.92 14.4579 197.985 7.0099 197.11 0H194.044C187.913 13.1435 180.906 25.4108 173.461 36.8019C164.702 50.8217 155.944 63.089 146.747 77.1087C141.054 85.8711 135.361 92.881 127.916 103.396H125.726C123.537 99.0146 116.53 90.2523 116.092 90.6904C104.706 94.6334 106.895 123.549 104.268 133.188C103.392 133.626 102.516 134.064 102.078 134.502C95.9469 121.797 87.6262 104.71 80.6193 93.7572C74.9261 84.9948 70.9847 75.7944 63.5398 68.3464C60.0364 64.4033 53.0294 63.5271 49.088 60.0221C25.0017 61.3365 15.8051 83.6805 10.112 103.396C9.67403 109.091 9.23609 115.225 9.23609 120.921C7.48436 126.616 5.29469 134.94 3.98089 141.074V168.237C2.22916 174.371 -1.27431 183.571 0.477422 191.457C1.79122 196.277 3.98089 213.801 2.66709 219.059C-0.836378 234.393 1.79122 258.928 4.85676 272.509ZM57.4088 105.148C69.233 106.901 86.7503 124.425 88.94 126.178C90.6917 128.807 92.4435 131.435 94.1952 133.626C106.019 142.826 114.34 152.465 122.661 165.17C126.164 170.428 132.295 181.819 130.982 188.391C130.544 190.143 128.354 194.086 127.916 195.839C127.478 199.344 127.04 202.849 126.602 206.353C124.851 210.297 119.595 213.363 117.406 216.868C114.778 220.811 113.902 225.631 110.837 229.574C109.085 230.888 106.895 232.202 104.706 233.517C103.83 235.707 103.392 237.898 102.516 240.089C102.078 240.527 98.1366 241.841 97.2607 243.155C94.6331 247.975 92.8814 255.861 91.1297 261.118C88.5021 269.004 87.6262 290.034 91.1297 297.92C92.4435 300.987 101.202 311.064 99.4504 316.321C99.0125 317.635 70.1088 332.093 67.0433 336.474C62.226 336.036 61.3502 334.284 58.2846 332.531C56.095 321.14 53.0294 309.311 49.9639 298.796C48.6501 281.71 46.0225 265.937 45.1466 241.841C45.1466 241.841 44.2708 187.514 43.8328 174.809C45.5846 142.388 46.4604 125.302 57.4088 105.148ZM187.913 249.289V243.155C190.541 244.47 188.789 242.279 189.665 245.346C194.92 243.593 193.606 240.527 196.234 236.584V235.707C198.861 237.022 198.423 237.022 198.423 240.965H199.299C202.803 231.764 203.241 222.126 206.744 212.487C212.875 193.648 219.006 177.438 229.955 162.98C230.83 163.418 231.706 163.856 233.02 164.294C237.399 187.953 225.137 230.888 219.444 252.356V269.442C218.568 272.071 215.941 275.576 215.065 277.767C214.189 279.957 215.941 282.586 215.941 283.024C216.817 287.843 213.313 296.168 210.685 298.796C210.685 299.673 210.248 300.987 209.81 301.863C194.482 302.301 193.606 302.739 182.658 296.606C180.468 284.338 185.285 268.128 186.599 256.737C187.913 257.613 187.913 257.613 188.789 258.928H190.978C190.541 254.546 190.103 251.48 187.913 249.289ZM158.133 240.965C163.389 225.631 171.709 209.42 179.154 196.715C181.782 198.029 180.03 196.277 181.344 198.905C183.972 203.287 179.592 230.012 178.278 234.831C174.775 247.537 176.965 276.89 168.644 291.348C161.199 292.663 159.447 291.348 152.002 290.472C147.623 278.205 158.133 245.346 158.133 240.965ZM148.937 297.92V295.73C159.447 295.73 164.702 299.234 170.834 303.177C170.834 304.93 172.147 310.187 172.147 310.187C171.709 311.502 170.396 311.502 169.958 314.569C161.637 315.007 155.944 317.197 151.127 312.378C148.937 310.187 146.309 300.987 148.937 297.92ZM205.43 319.826C196.672 320.264 190.541 318.95 183.534 315.445C183.096 313.692 183.534 314.569 182.658 313.692C182.658 311.94 183.096 310.187 183.534 308.435C190.103 307.997 200.613 308.435 204.554 311.502C208.058 311.94 206.306 310.625 207.62 313.692C208.934 315.445 206.744 317.635 205.43 319.826ZM181.344 368.019C170.834 366.705 175.651 361.447 170.834 356.628H167.768C167.33 355.314 166.892 353.999 166.892 352.247C161.637 345.237 149.813 331.655 155.068 320.702C162.075 321.14 164.265 322.455 169.958 322.893C171.271 325.96 173.023 332.531 172.147 334.722C170.834 337.789 170.396 337.351 167.768 338.665V340.856C168.206 341.294 175.213 346.989 175.213 346.989C179.154 352.685 175.213 357.504 182.658 362.762C182.22 365.828 182.22 366.266 181.344 368.019Z" fill="url(#paint0_linear_356_90)"/>
<defs>
<linearGradient id="paint0_linear_356_90" x1="-33.8606" y1="223.176" x2="377.647" y2="249.456" gradientUnits="userSpaceOnUse">
<stop stop-color="#FFBA00"/>
<stop offset="0.166667" stop-color="#FF0098"/>
<stop offset="0.333333" stop-color="#FF00FF"/>
<stop offset="0.5" stop-color="#00FFEB"/>
<stop offset="0.588542" stop-color="#870CFF"/>
<stop offset="0.8125" stop-color="#00FF02"/>
<stop offset="0.875" stop-color="#0000FF"/>
</linearGradient>
</defs>
</svg>
