<svg width="565" height="373" viewBox="0 0 565 373" fill="none" xmlns="http://www.w3.org/2000/svg">
<rect width="565" height="373" fill="url(#paint0_linear_190_65)"/>
<path d="M55.8025 373V322H0V313H135.52V322H79.7178V373H55.8025Z" fill="black"/>
<path d="M151.215 373V313H246.876V322H175.13V337H246.876V346H175.13V364H246.876V373H151.215Z" fill="black"/>
<path d="M271.29 373V367H279.261V364H287.233V361H295.205V358H303.177V352H311.149V349H319.12V346H327.092V340H319.12V337H311.149V334H303.177V328H295.205V325H287.233V322H279.261V319H271.29V313H303.177V316H311.149V322H319.12V325H327.092V328H335.064V334H351.007V328H358.979V325H366.951V322H374.923V316H382.895V313H414.782V319H406.81V322H398.838V325H390.866V328H382.895V334H374.923V337H366.951V340H358.979V346H366.951V349H374.923V352H382.895V358H390.866V361H398.838V364H406.81V367H414.782V373H382.895V370H374.923V364H366.951V361H358.979V358H351.007V352H335.064V358H327.092V361H319.12V364H311.149V370H303.177V373H271.29Z" fill="black"/>
<path d="M485.282 373V322H429.48V313H565V322H509.198V373H485.282Z" fill="black"/>
<defs>
<linearGradient id="paint0_linear_190_65" x1="282.5" y1="0" x2="282.5" y2="373" gradientUnits="userSpaceOnUse">
<stop stop-color="#E4FF76"/>
<stop offset="1" stop-color="#4807FF"/>
</linearGradient>
</defs>
</svg>
