<svg width="340" height="108" viewBox="0 0 340 108" fill="none" xmlns="http://www.w3.org/2000/svg">
<rect width="340" height="108" fill="url(#paint0_radial_307_12)"/>
<path d="M95 71V38H101.91V41.3H103.293V44.6H104.675V47.9H106.057V51.2H107.439V54.5H108.821V57.8H110.203V61.1H111.585V64.4H112.967V38H117.113V71H110.203V67.7H108.821V64.4H107.439V61.1H106.057V57.8H104.675V54.5H103.293V51.2H101.91V47.9H100.528V44.6H99.1463V71H95Z" fill="black"/>
<path d="M138.406 56.15V54.5H137.024V51.2H135.642V47.9H134.26V44.6H132.878V47.9H131.496V51.2H130.114V54.5H128.732V56.15H138.406ZM120.439 71V66.05H121.821V62.75H123.203V57.8H124.585V54.5H125.967V51.2H127.35V47.9H128.732V44.6H130.114V41.3H131.496V38H135.642V41.3H137.024V44.6H138.406V47.9H139.788V51.2H141.17V54.5H142.553V57.8H143.935V62.75H145.317V66.05H146.699V71H142.553V67.7H141.17V64.4H139.788V61.1H127.35V64.4H125.967V67.7H124.585V71H120.439Z" fill="black"/>
<path d="M157.367 71V69.35H153.221V67.7H151.838V66.05H150.456V64.4H149.074V61.1H147.692V47.9H149.074V44.6H150.456V42.95H151.838V41.3H153.221V39.65H157.367V38H164.277V39.65H168.424V41.3H169.806V44.6H171.188V46.25H172.57V47.9H167.041V46.25H165.659V44.6H162.895V42.95H158.749V44.6H155.985V46.25H154.603V47.9H153.221V51.2H151.838V57.8H153.221V61.1H154.603V62.75H155.985V64.4H158.749V66.05H162.895V64.4H165.659V62.75H167.041V61.1H172.57V62.75H171.188V64.4H169.806V67.7H168.424V69.35H164.277V71H157.367Z" fill="black"/>
<path d="M176.198 71V38H180.344V51.2H192.783V38H196.929V71H192.783V56.15H180.344V71H176.198Z" fill="black"/>
<path d="M218.222 56.15V54.5H216.84V51.2H215.458V47.9H214.076V44.6H212.694V47.9H211.312V51.2H209.929V54.5H208.547V56.15H218.222ZM200.255 71V66.05H201.637V62.75H203.019V57.8H204.401V54.5H205.783V51.2H207.165V47.9H208.547V44.6H209.929V41.3H211.312V38H215.458V41.3H216.84V44.6H218.222V47.9H219.604V51.2H220.986V54.5H222.368V57.8H223.75V62.75H225.132V66.05H226.515V71H222.368V67.7H220.986V64.4H219.604V61.1H207.165V64.4H205.783V67.7H204.401V71H200.255Z" fill="black"/>
<path d="M231.179 71V42.95H221.504V38H245V42.95H235.325V71H231.179Z" fill="black"/>
<defs>
<radialGradient id="paint0_radial_307_12" cx="0" cy="0" r="1" gradientUnits="userSpaceOnUse" gradientTransform="translate(170 54) rotate(90) scale(54 170)">
<stop stop-color="#FFFF0F" stop-opacity="0.8"/>
<stop offset="1" stop-color="#19E672"/>
</radialGradient>
</defs>
</svg>
